<?xml version="1.0" encoding="UTF-8" standalone="no"?>
<!-- Created with Inkscape (http://www.inkscape.org/) -->

<svg
   version="1.1"
   id="svg48"
   width="1843.119"
   height="309.0657"
   viewBox="0 0 1843.119 309.0657"
   xmlns="http://www.w3.org/2000/svg"
   xmlns:svg="http://www.w3.org/2000/svg">
  <defs
     id="defs52" />
  <g
     id="g54">
    <path
       style="fill:#fefefe"
       d="m 76.11942,307.51175 v -1.55455 l 2.93657,-8.04641 2.93658,-8.04641 -5.75717,-2.90621 -5.75717,-2.90621 -9.4294,-6.28136 -9.42941,-6.28137 -10.5,-10.5611 -10.5,-10.5611 -5.61652,-8.4837 -5.61651,-8.48371 -4.06054,-8 -4.06054,-8 -2.63374,-7 -2.63374,-7 -2.35043,-11 -2.35042,-11 -0.64849,-11 -0.64849,-11 1.04027,-11 1.04028,-11 1.91624,-7.67664 1.91624,-7.67663 2.183,-6.32337 2.18299,-6.32336 4.38232,-9.02137 4.38232,-9.021359 3.24223,-4.97863 3.24223,-4.97864 5.70637,-7.062121 5.70636,-7.062124 8.33928,-7.85947 8.33929,-7.85947 8.99209,-5.915512 8.9921,-5.915512 8.16967,-3.899226 8.16968,-3.899226 9.334742,-3.02568 9.334738,-3.02567 9.00349,-1.66546 9.00349,-1.66546 16.00001,-0.003 16,-0.003 8.70056,1.73139 8.70055,1.7314 2.79945,-1.56547 2.79944,-1.56546 L 196.04665,11.43528 212.47387,0 l 0.67584,0.41769 0.67583,0.41769 1.75377,13.2818 1.75376,13.2818 1.35323,9.500003 1.35323,9.5 3.76925,3 3.76925,3 6.78961,5.813092 6.78961,5.813092 7.3787,9.186908 7.3787,9.186906 5.02423,8.28642 5.02424,8.28642 3.21588,7.713579 3.21589,7.71358 1.88458,6.5 1.88457,6.5 1.53457,7.32946 1.53457,7.32947 0.69312,10.17053 0.69313,10.17058 -0.66719,10.04497 -0.66719,10.04497 -1.5667,7.45503 -1.5667,7.45503 -1.10346,4 -1.10345,4 -3.59904,9 -3.59905,9 -2.98281,5.5 -2.98282,5.5 -4.33704,6.5 -4.33705,6.5 -5.70981,6.5 -5.70982,6.5 -7.6258,6.80447 -7.6258,6.80446 -6.85845,4.60098 -6.85845,4.60098 -11.04969,5.29373 -11.04968,5.29372 -9,2.5925 -9,2.59249 -9,1.57006 -9,1.57005 -18,-0.52273 -18.00001,-0.52274 -10.05255,-2.52575 -10.052548,-2.52575 -5.05822,-1.99376 -5.058232,-1.99377 -4.44105,8.11447 -4.44106,8.11448 -1.19817,0.39939 -1.19817,0.39939 z m 86.61353,-22.07091 7.88648,-1.41331 5.83871,-1.81395 5.83871,-1.81396 -11.33871,-0.13785 -11.33871,-0.13784 -8,-2.12533 -8,-2.12533 -11,-5.38785 -11.00001,-5.38785 -6.93044,-5.06387 -6.93043,-5.06387 -1.15563,1.71489 -1.15562,1.7149 -5.22788,9.74203 -5.227878,9.74203 0.56248,0.91013 0.56249,0.91012 6.932818,2.10578 6.93281,2.10578 7.81864,1.45226 7.81864,1.45226 4.50001,0.43023 4.5,0.43024 10.11352,-0.41317 10.11353,-0.41316 z M 87.11942,274.64601 v -0.25362 l 3.438592,-9.74766 3.43858,-9.74766 -6.688592,0.60467 -6.68858,0.60466 -8.17144,-1.56753 -8.17144,-1.56753 -6.62634,-3.1308 -6.62634,-3.13079 -4.70222,-3.53819 -4.70222,-3.53819 2.98335,3.38312 2.98335,3.38313 6.51665,6.32516 6.51665,6.32517 7.5,5.28503 7.5,5.28503 4.5,2.56826 4.5,2.56825 1.25,0.0716 1.25,0.0715 z m 83.404,-7.72183 7.72391,-1.97545 5.72397,-3.05084 5.72397,-3.05084 5.02954,-4.72372 5.02954,-4.72371 3.04802,-4.5 3.04801,-4.5 2.48845,-5 2.48845,-5 2.35747,-8.5 2.35747,-8.5 0.0117,-16.5 0.0117,-16.5 -1.76247,-7.89839 -1.76247,-7.89838 -2.92554,-8.87753 -2.92554,-8.87752 -4.53902,-9.33139 -4.53902,-9.33138 -5.63454,-8.6982 -5.63454,-8.6982 -2.15906,3.8055 -2.15907,3.80549 -5.32648,10 -5.32648,10 -0.72651,1 -0.72651,1 -5.78577,11 -5.78577,11 -0.72743,1 -0.72743,1 -5.63628,10.62821 -5.63629,10.62822 -0.0154,7.87178 -0.0154,7.87179 -1.97683,7.84536 -1.97683,7.84537 -3.25782,6.13856 -3.25781,6.13856 -6.34046,6.73356 -6.34046,6.73356 -6.44511,4.07046 -6.44511,4.07046 0.54425,0.88062 0.54425,0.88062 6.74132,3.87447 6.74131,3.87447 5.50001,2.19134 5.5,2.19133 6,1.451 6,1.451 2,0.44863 2,0.44863 6.09004,0.116 6.09003,0.116 7.72392,-1.97544 z m 71.73256,-32.02456 4.57725,-6.5 3.5872,-6.5 3.58719,-6.5 3.45997,-9 3.45997,-9 2.15596,-10 2.15596,-10 -0.008,-15.59992 -0.008,-15.59992 -1.11389,-4.90008 -1.11388,-4.90008 -1.06194,-4.5 -1.06193,-4.5 -2.40385,-6.88577 -2.40384,-6.88577 -3.45325,-6.88082 -3.45324,-6.880819 -4.89347,-7.2334 -4.89313,-7.23342 -5.64569,-6.310074 -5.64569,-6.310076 -6.69151,-5.939924 -6.6915,-5.939923 h -0.66618 -0.66617 l -0.97716,1.25 -0.97717,1.25 -3.77727,7 -3.77728,7 -2.90999,5.271397 -2.90998,5.2714 4.37397,5.7286 4.37397,5.7286 5.04309,7.519719 5.04309,7.51972 6.06579,12.48028 6.0658,12.48028 2.96475,9.02522 2.96476,9.02523 2.34437,10.47477 2.34437,10.47478 -0.0276,19 -0.0276,19 -2.34319,9 -2.3432,9 -2.83313,6.28672 -2.83313,6.28672 -3.08992,4.71328 -3.08993,4.71328 7.32351,-7.5 7.32351,-7.5 4.57725,-6.5 z m -131.97411,11.07835 1.31669,-2.57835 2.57419,-4.5 2.57419,-4.5 5.82253,-11 5.82253,-11 0.72743,-1 0.72743,-1 5.78577,-11 5.78577,-11 0.96386,-1.23904 0.96386,-1.23904 -0.6949,-3.70417 -0.69491,-3.70417 -2.49427,-6.23059 -2.49428,-6.23059 -2.9883,-4.71206 -2.9883,-4.71207 -0.84984,0.88587 -0.84983,0.88586 -1.99835,6 -1.99835,6 -6.68508,19 -6.68508,19 -0.82413,2.5 -0.82413,2.5 -6.57847,18.92296 -6.578478,18.92296 v 0.78647 0.78648 l 5.922888,-2.13109 5.92288,-2.13109 z M 22.61942,194.14962 v -10.75 l 1.38912,-5 1.38912,-5 3.61088,-7.45717 3.61088,-7.45718 6.68755,-6.98936 6.68755,-6.98936 -0.479,-0.77504 -0.479,-0.77503 -0.0478,-16.44 -0.0478,-16.44 1.17379,-5.83843 1.17378,-5.838429 1.51699,-5.35511 1.51699,-5.35512 2.48963,-5.64488 2.48963,-5.644887 3.71988,-5.5 3.71988,-5.5 0.86087,-1.5 0.86087,-1.5 -2.40081,2 -2.4008,2 -5.38669,5 -5.38669,5 -5.6344,7.006467 -5.6344,7.00646 -2.19751,3.13204 -2.1975,3.13203 -4.51076,8.930019 -4.51075,8.93002 -2.98307,8.93148 -2.98308,8.93148 -1.55866,9.73923 -1.55867,9.73924 0.0175,10.76076 0.0175,10.76077 1.4366,8.5 1.4366,8.5 2.04594,6.99682 2.04594,6.99682 v 0.25318 0.25318 h 0.25 0.25 v -10.75 z m 110.27838,-50.75 3.07611,-9 6.66162,-19 6.66161,-18.999999 2.59739,-7.75357 2.5974,-7.75357 -1.93625,-1.43909 -1.93625,-1.439095 -8,-3.998285 -8,-3.998284 -6.5,-2.019303 -6.50001,-2.019302 -8.23846,-1.085845 -8.23846,-1.085845 -6.261538,1.114222 -6.26154,1.114222 -4.096382,1.367854 -4.09639,1.367855 -4.40361,2.245726 -4.40362,2.245727 -7.51812,7.568293 -7.51813,7.56829 -3.67576,7.5 -3.67576,7.499999 -2.09669,7.5 -2.0967,7.5 -0.61783,12.38614 -0.61783,12.38613 0.90841,-0.39332 0.90841,-0.39331 6.07996,-3.17138 6.07996,-3.17138 6.06439,-1.57144 6.06438,-1.57144 9.85565,0.0119 9.855662,0.0119 5.5,1.46174 5.499998,1.46174 7,3.46383 7,3.46382 5.5,4.95616 5.50001,4.95615 0.10113,-0.14359 0.10113,-0.14359 3.07611,-9 z m 32.95658,-94.664785 2.96805,-8.664789 -6.6015,-1.302098 -6.6015,-1.302097 -15.5,-0.0098 -15.50001,-0.0098 -9,1.976675 -9,1.976674 9.5,0.627 9.5,0.627 8.19253,2.217041 8.19252,2.217041 10.30748,5.155959 10.30748,5.155983 h 0.13345 0.13346 z m 256.01504,232.084685 -1.75,-1.01928 v -1.89419 -1.8942 l 4.99407,-15.0943 4.99407,-15.09431 1.62009,-3.21181 1.62009,-3.21181 2.63584,-2.84158 2.63584,-2.84159 4,-2.15841 4,-2.15842 31,-0.31525 31,-0.31526 4.31345,0.63604 4.31345,0.63605 3.0866,2.75788 3.08661,2.75788 0.1,4.5192 0.0999,4.5192 -1.38369,2.58618 -1.38368,2.58619 -2.98456,1.23624 -2.98456,1.23625 -1.63175,-1.02241 -1.63177,-1.02241 -0.5,-3.89789 -0.5,-3.89789 -32.5,-0.27445 -32.5,-0.27445 -1.75,2.13523 -1.75,2.13524 v 1.23533 1.23534 l 18.25,0.58411 18.25,0.58411 8,1.64412 8,1.64413 4.3218,2.50987 4.32179,2.50988 3.03144,3.16577 3.03143,3.16577 1.89677,3.71016 1.89677,3.71016 v 2.45095 2.45094 l -3.07673,2.5889 -3.07672,2.58889 h -1.74896 -1.74896 l -2.17432,-2.31445 -2.17431,-2.31445 v -0.99013 -0.99014 l -3.25,-3.54328 -3.25,-3.54328 -3.5,-1.80791 -3.5,-1.80791 -5,-1.33236 -5,-1.33235 -19.12868,-0.0119 -19.12868,-0.0119 -1.07746,2.75 -1.07747,2.75 -1.69354,5.35573 -1.69354,5.35573 -3.10032,1.89053 -3.10031,1.89053 -1,-0.0267 -1,-0.0267 -1.75,-1.01928 z m 116.89255,0.0791 -2.85745,-0.88355 -1.99493,-1.80538 -1.99493,-1.80539 -1.39762,-2.7027 -1.39762,-2.7027 v -6.03893 -6.03894 l 1.89222,-4.97993 1.89223,-4.97993 3.72306,-5.07182 3.72306,-5.07183 5.70314,-3.87292 5.70313,-3.87293 5.93158,-1.15701 5.93158,-1.15701 27,0.32096 27,0.32097 3.33764,1.821 3.33763,1.821 2.03544,4.60143 2.03543,4.60143 -0.49138,6.12158 -0.49138,6.12158 -2.84535,5.81095 -2.84535,5.81096 -5.14938,5.14938 -5.14938,5.14938 -4.88696,2.49565 -4.88696,2.4957 -30,0.19129 -30,0.19129 -2.85745,-0.88354 z m 65.5023,-13.07656 2.01336,-1.07752 1.99918,-1.67248 1.99919,-1.67248 2.49675,-4.21591 2.49676,-4.21591 0.17495,-4.62219 0.17496,-4.62219 -2.36078,-1.9119 -2.36079,-1.9119 H 583.4688 556.03974 l -3.90223,1.99077 -3.90223,1.99077 -2.41982,3.25923 -2.41983,3.25923 -1.13811,3.39922 -1.1381,3.39923 v 2.53632 2.53633 l 2.17431,2.31445 2.17432,2.31445 h 28.39143 28.39142 z m 40.35515,12.84205 -3,-1.07757 -1.70633,-1.94613 -1.70632,-1.94614 -1.16897,-3.54201 -1.16898,-3.54202 0.49361,-6.14934 0.49361,-6.14934 2.82231,-5.7639 2.82231,-5.7639 4.77653,-4.85247 4.77654,-4.85247 5.78284,-2.83962 5.78285,-2.83958 36.3378,-0.30748 36.3378,-0.30748 2.4122,1.58053 2.4122,1.58054 v 2.05387 2.05387 l -2.92308,2.92307 -2.92307,2.92308 H 699.0342 662.79514 l -4.31128,2.52658 -4.31128,2.52658 -2.43055,4.22342 -2.43055,4.22342 -0.64963,4.047 -0.64963,4.047 2.12618,2.703 2.12618,2.703 h 35.49316 35.49316 l 1.93426,1.03518 1.93426,1.03519 -0.0318,2.71481 -0.0318,2.71482 -1.21819,1.58666 -1.2182,1.58665 -2.18426,1.16335 -2.18426,1.16334 -36.31574,-0.079 -36.31574,-0.0789 -3,-1.07758 z m 94.16724,-0.82922 -1.44617,-2.06469 0.55685,-2.18531 0.55684,-2.18531 6.8133,-19.81424 6.81327,-19.81424 0.6394,-1.03451 0.6394,-1.03451 3.1159,-1.31015 3.1159,-1.31014 1.6464,0.88111 1.6464,0.88112 0.5806,1.51323 0.5807,1.51323 -1.8694,5.76455 -1.8695,5.76455 -0.7005,1.75 -0.7006,1.75 h 17.0582 17.0582 l 5.2988,-1.41717 5.2988,-1.41718 4.1739,-1.51164 4.174,-1.51163 8.826,-4.44559 8.8261,-4.44558 4.8021,-2.57411 4.802,-2.57411 2.198,0.8064 2.1979,0.80639 0.297,2.92359 0.2971,2.92358 -2.3716,2.22796 -2.3715,2.22795 -5.5061,3.31557 -5.506,3.31557 -8.1601,3.925 -8.1601,3.925 -0.01,0.5 -0.01,0.5 4.3794,2.76665 4.3794,2.76665 5.1188,5.03872 5.1189,5.03872 v 1.51037 1.51037 l -1.0297,1.92391 -1.0296,1.92391 -3.0204,1.56187 -3.0203,1.56188 -1.7,-0.55319 -1.7,-0.5532 -3.5,-3.30619 -3.5,-3.30618 -6.1101,-4.13438 -6.1101,-4.13437 -6.1084,-2.05777 -6.1084,-2.05777 h -16.8347 -16.8347 l -2.3184,7.19853 -2.3185,7.19854 -2.8014,2.80146 -2.80149,2.80147 h -2.02022 -2.02022 l -1.44617,-2.06469 z m 109.68589,0.13835 -3.1469,-1.91887 -1.191,-3.60872 -1.191,-3.60871 2.1921,-7.21868 2.1921,-7.21868 1.3974,-2.70344 1.3974,-2.70344 3.7484,-1.04098 3.7484,-1.04099 39.5275,-0.006 39.5275,-0.006 2.2225,1.5567 2.2225,1.55671 v 2.02022 2.02022 l -2.9231,2.92307 -2.9231,2.92308 h -38.6017 -38.6016 l -0.9753,2.5651 -0.9752,2.5651 v 0.9349 0.9349 h 38.3892 38.3892 l 2.2918,1.85581 2.2919,1.85581 -1.3219,3.19135 -1.3219,3.19135 -2.8095,1.45284 -2.8095,1.45284 -38.7997,-0.004 -38.7996,-0.004 -3.1469,-1.91886 z m 140.2006,0.58928 -1.8286,-1.33707 0.5057,-2.91293 0.5057,-2.91294 5.483,-15.75 5.483,-15.75 -17.6013,-0.0153 -17.6012,-0.0153 -1.4049,-0.88943 -1.4049,-0.88943 0.088,-3.08191 0.088,-3.08192 0.6893,-1.11537 0.6894,-1.11538 3.3458,-1.39796 3.3458,-1.39797 h 40.53205 40.5322 l 1.8835,1.88358 1.8837,1.88359 -0.5035,2.63368 -0.5035,2.63368 -2.7844,1.98274 -2.7845,1.98273 h -17.9745 -17.9743 l -1.0616,2.75 -1.0616,2.75 -4.7061,14 -4.70615,14 -0.8832,1.73965 -0.8832,1.73965 -2.9207,1.51035 -2.9207,1.51035 h -0.8585 -0.8585 l -1.8286,-1.33706 z m 116.19635,-0.055 -1.75,-1.32844 v -1.29041 -1.29042 l 6.585,-19.59934 6.585,-19.59934 1.4958,-3.18038 1.496,-3.18038 3.0683,-1.06962 3.0683,-1.06962 h 34.408 34.408 l 4.5454,1.14455 4.5454,1.14455 1.8937,3.10545 1.8936,3.10545 v 3.2609 3.2609 l -2.0505,4.36221 -2.0505,4.36221 -2.1995,2.05208 -2.1995,2.05208 -5.1452,2.57481 -5.1453,2.57481 h -34.0118 -34.0117 l -1.7566,5.75 -1.7566,5.75 -1.3534,2.73307 -1.3534,2.73308 -2.9334,1.51692 -2.9334,1.51693 -0.7996,-0.0318 -0.7997,-0.0318 -1.75,-1.32844 z m 88.6648,-33.7898 1.5282,-2.18185 -1.0939,-1.31815 -1.094,-1.31815 h -32.717 -32.7172 l -1.1605,2.54705 -1.1604,2.54706 v 0.95294 0.95295 h 33.4433 33.4433 z m 14.2173,33.06705 -1.4812,-2.1148 0.3076,-1.1352 0.3077,-1.1352 2.3669,-7.5 2.3669,-7.5 4.5277,-4.57531 4.5277,-4.5753 4.6651,-1.1747 4.6651,-1.17469 h 32.5005 32.5005 l 1.4813,-2.1148 1.4812,-2.1148 -0.527,-1.37328 -0.5269,-1.37327 -37.5389,-0.26192 -37.5389,-0.26193 -1.006,-1.59522 -1.0059,-1.59523 0.6741,-2.68579 0.6741,-2.6858 3.2231,-1.96524 3.2232,-1.96524 34.8072,-0.004 34.8072,-0.004 4.3812,1.10321 4.3812,1.1032 1.6464,1.81918 1.6463,1.81918 0.548,4.08573 0.548,4.08573 -1.6912,4.42831 -1.6912,4.42831 -3.7879,3.42221 -3.788,3.42221 -4.7107,1.79903 -4.7107,1.79904 4.5571,4.62668 4.5571,4.62668 v 2.78708 2.78708 l -1.2706,1.27063 -1.2707,1.27064 -2.1636,1.15793 -2.1636,1.15794 h -1.0138 -1.0139 l -5.8019,-4.8025 -5.8019,-4.8025 -4.5829,-3.13059 -4.5829,-3.13059 -6.1356,-2.06691 -6.1355,-2.06691 h -16.0463 -16.0462 l -1.8817,3.09426 -1.8818,3.09426 -1.241,4.43251 -1.241,4.43251 -2.9393,2.47323 -2.9393,2.47323 h -1.8665 -1.8666 l -1.4813,-2.1148 z m 117.0105,1.11384 -2.8575,-0.88355 -1.8566,-1.68021 -1.8566,-1.68021 -1.6619,-4.35166 -1.662,-4.35166 0.4379,-5.27587 0.4378,-5.27588 2.6558,-5.80007 2.6557,-5.80007 5.2178,-5.46709 5.2178,-5.46709 5.5646,-2.73284 5.5646,-2.73284 h 30.5 30.5 l 2.9101,1.5 2.91,1.5 1.8335,2.5 1.8334,2.5 0.8947,4.84279 0.8948,4.84279 -1.2099,5.15721 -1.2099,5.15721 -1.8358,3.84169 -1.8358,3.84169 -4.9025,5.36407 -4.9024,5.36408 -5.6901,2.79423 -5.6901,2.79424 -30,0.19129 -30,0.19129 z m 66.2586,-13.44796 2.8019,-1.44891 3.0939,-3.52375 3.0939,-3.52375 1.049,-3.77734 1.0489,-3.77733 0.01,-2.67742 0.01,-2.67742 -2.6349,-2.07258 -2.6348,-2.07258 h -27.479 -27.479 l -3.8686,2.17427 -3.8686,2.17428 -2.4267,3.66705 -2.4268,3.66706 -1.0852,3.90867 -1.0852,3.90867 -0.01,1.11514 -0.01,1.11514 2.0726,2.63486 2.0726,2.63486 h 28.477 28.4771 z m 39.7414,13.44796 -2.8575,-0.88355 -1.9949,-1.80538 -1.995,-1.80539 -1.3976,-2.7027 -1.3976,-2.7027 v -4.09932 -4.09932 l 1.4528,-2.80949 1.4529,-2.80948 2.9564,-1.2246 2.9564,-1.22459 2.0908,1.11892 2.0907,1.11893 v 3.92586 3.92586 l 2.1886,2.03895 2.1885,2.03896 h 27.8611 27.8611 l 2.7004,-1.41072 2.7003,-1.41073 2.697,-2.83927 2.6969,-2.83928 1.4841,-3.55275 1.484,-3.55275 2.9763,-8.58983 2.9763,-8.58982 1.1224,-2.09708 1.1223,-2.09707 2.9794,-1.5407 2.9794,-1.5407 1.8733,1.00257 1.8733,1.00257 0.5417,1.41162 0.5417,1.41163 -3.8641,11.53113 -3.8641,11.53114 -2.4512,4.83706 -2.4511,4.83706 -5.608,5.30385 -5.6081,5.30386 -4.7507,2.1941 -4.7508,2.19411 -30,0.19129 -30,0.19129 z m 100.8574,-0.21468 -2,-1.15481 -1.4048,-1.39815 -1.4048,-1.39815 -0.3603,-4.66663 -0.3604,-4.66662 2.8065,-8 2.8065,-8 3.4587,-1.19356 3.4586,-1.19356 40.3157,-0.0564 40.3158,-0.0564 1.9342,1.03518 1.9343,1.03519 -0.032,2.71481 -0.032,2.71482 -1.2182,1.58666 -1.2182,1.58665 -2.1843,1.16335 -2.1842,1.16334 h -37.9588 -37.9587 l -0.607,1.58179 -0.607,1.58178 v 1.91822 1.91821 h 38.0657 38.0658 l 1.9342,1.03518 1.9343,1.03519 v 2.54174 2.54174 l -2.9231,2.92307 -2.9231,2.92308 -39.8269,-0.0304 -39.8269,-0.0304 -2,-1.15482 z m 112,0.002 -3,-1.05533 -1.3078,-1.03612 -1.3078,-1.03612 -1.4422,-3.45173 -1.4422,-3.45173 v -5.86715 -5.86715 l 1.8922,-4.97993 1.8922,-4.97993 3.7231,-5.07182 3.7231,-5.07183 5.6347,-3.82414 5.6347,-3.82415 5.2992,-1.13483 5.2992,-1.13482 h 33.9508 33.9508 l 1.8836,1.88358 1.8836,1.88359 -0.5035,2.63368 -0.5035,2.63368 -2.7844,1.98274 -2.7845,1.98273 h -35.6355 -35.6355 l -3.9022,1.99077 -3.9022,1.99077 -2.4199,3.25923 -2.4198,3.25923 -1.1381,3.39922 -1.1381,3.39923 v 2.67646 2.67646 l 2.3145,2.17432 2.3144,2.17431 h 35.2513 35.2513 l 1.9342,1.03518 1.9343,1.03519 v 2.54174 2.54174 l -2.9231,2.92307 -2.9231,2.92308 -36.8269,-0.079 -36.8269,-0.0789 -3,-1.05533 z m 134.7,0.0132 -1.2,-1.2 0.015,-2.55 0.015,-2.55 5.4847,-15.95742 5.4848,-15.95742 v -0.27002 -0.27002 l -18.1421,-0.27256 -18.1421,-0.27256 -1.0052,-1.59522 -1.0051,-1.59523 0.6741,-2.68579 0.6741,-2.6858 3.2231,-1.96524 3.2232,-1.96524 40.1849,-0.004 40.1849,-0.004 2.5651,0.97525 2.5651,0.97525 v 2.88839 2.88838 l -2.6364,2.63637 -2.6363,2.63636 h -18.3046 -18.3047 l -0.6178,0.9997 -0.6179,0.99971 -5.0242,14.75029 -5.0243,14.7503 -1.4651,3.11144 -1.4651,3.11145 -2.4988,1.13855 -2.4989,1.13856 h -1.253 -1.2529 l -1.2,-1.2 z m -923.11895,-40.64841 -0.9892,-1.84842 0.7548,-2.90158 0.7549,-2.90159 3.4492,-1.74845 3.4492,-1.74844 41.1849,-0.002 41.1849,-0.002 2.5651,0.97525 2.5651,0.97525 v 2.44802 2.44803 l -2.5889,3.07672 -2.5889,3.07673 h -44.3759 -44.376 l -0.9892,-1.84841 z m 683.11895,0.6489 -1.2,-1.2 0.032,-2.55 0.032,-2.55 1.2997,-1.71069 1.2997,-1.71068 2.7336,-1.03932 2.7336,-1.03931 h 41.5006 41.5007 l 1.8166,0.97222 1.8166,0.97222 0.6106,1.59113 0.6105,1.59112 -1.5032,2.90701 -1.5033,2.90701 -1.9239,1.02965 -1.9239,1.02964 h -43.3658 -43.3657 l -1.2,-1.2 z m -1182.53341,-59.46667 -0.66667,-0.66666 v -2.87488 -2.87487 l 3.43816,-9.87757 3.43816,-9.87757 2.07185,-4.33089 2.07185,-4.33089 1.61196,-2.25 1.61196,-2.25 H 349.34838 329.3334 l -0.60699,-1.58179 -0.60699,-1.58178 v -1.96367 -1.96367 l 2.45455,-2.45454 2.45454,-2.45455 h 42.46367 42.46367 l 1.58178,0.60699 1.58179,0.60699 v 3.21869 3.2187 l -2.31445,2.17432 -2.31445,2.17431 h -13.86983 -13.86982 l -4.23543,2.05034 -4.23543,2.05033 -2.46831,3.23612 -2.46831,3.23613 -4.23231,12.46354 -4.23231,12.46354 -2.43544,2.25 -2.43544,2.25 h -2.77757 -2.77757 z m 75.2266,-0.83024 -2.60673,-1.41683 -1.62485,-2.47983 -1.62485,-2.47984 -1.0151,-4.52957 -1.01509,-4.52957 1.1037,-5.28372 1.1037,-5.28373 2.9037,-5.14047 2.90369,-5.14046 3.89185,-4.01028 3.89184,-4.01028 4.84744,-2.84926 4.84743,-2.84925 31.5,-0.28276 31.5,-0.28275 3.5,1.78275 3.5,1.78276 2.25,4.46189 2.25,4.46189 v 4.2506 4.25059 l -2.13686,5.78752 -2.13686,5.78751 -3.41924,4.71041 -3.41925,4.7104 -3.84184,3.0428 -3.84184,3.04279 -4.35206,1.97484 -4.35205,1.97484 -31,-0.0181 -31,-0.0181 -2.60673,-1.41683 z m 70.76589,-14.05417 3.84084,-3.05107 2.22985,-4.44893 2.22986,-4.44892 0.63713,-3.20994 0.63713,-3.20993 -3.04006,-3.04007 -3.04006,-3.04006 -26.82693,0.0282 -26.82692,0.0282 -4.5,2.2984 -4.5,2.2984 -2.83165,4.57271 -2.83164,4.5727 -0.54719,4.07962 -0.5472,4.07962 1.60421,2.44833 1.6042,2.44832 2.27464,0.47163 2.27463,0.47163 27.15916,-0.14885 27.15916,-0.14885 3.84084,-3.05108 z m 24.54084,14.35108 -1.2,-1.2 v -1.42119 -1.4212 l 6.63569,-19.6288 6.63569,-19.62881 1.41241,-2.79335 1.41241,-2.79336 2.37816,-1.08356 2.37816,-1.08356 2.57374,0.64597 2.57374,0.64596 v 2.74507 2.74506 l -2,5.47177 -2,5.47177 v 1.39702 1.39702 l 18.25,-0.5667 18.25,-0.56671 7,-2.4443 7,-2.44431 8.5,-4.09235 8.5,-4.09236 5.5,-3.02931 5.5,-3.02931 2.21482,-2.3e-4 2.21481,-2.3e-4 1.11893,2.09073 1.11892,2.09073 -1.1399,2.75196 -1.13991,2.75197 -7.92152,4.71207 -7.92153,4.71206 -7.59637,3.50974 -7.59638,3.50974 4.52894,2.99985 4.52893,2.99984 5.04513,4.73661 5.04513,4.73662 v 2.74449 2.7445 l -2.45455,2.45454 -2.45454,2.45455 h -2.65525 -2.65524 l -5.24517,-4.75 -5.24516,-4.75 -5.62556,-3.36025 -5.62556,-3.36026 -4.26949,-1.59867 -4.26948,-1.59868 -17.64219,-0.37049 -17.64218,-0.37048 -2.20192,7.11452 -2.20191,7.11452 -2.49479,2.9649 -2.4948,2.96489 h -2.7111 -2.71111 z m 102.88652,-0.63833 -0.98384,-1.83832 0.62947,-2.41168 0.62947,-2.41167 1.1085,-1 1.10849,-1 6.48329,-6 6.48328,-6 11.97741,-11.12275 11.97741,-11.12275 4.25296,-3.55068 4.25296,-3.55067 3.61362,-1.1926 3.61362,-1.1926 4.80005,0.46122 4.80004,0.46122 1.68728,1.68728 1.68727,1.68728 8.38128,20.92435 8.38128,20.92435 -0.63419,1.79318 -0.63419,1.79317 -2.02531,2.25 -2.0253,2.25 h -2.80263 -2.80263 l -1.44671,-2.25 -1.4467,-2.25 -6.72803,-17 -6.72804,-17 -1.5033,-1.75 -1.50331,-1.75 h -0.71884 -0.71885 l -6.37617,5.63997 -6.37616,5.63998 -10,9.19908 -10,9.19908 -6.85083,6.16095 -6.85084,6.16094 h -2.86398 -2.86398 z m 95.8774,0.29485 -1.28098,-1.54348 1.04346,-4.20652 1.04347,-4.20652 6.01146,-17.5 6.01147,-17.5 2.48843,-2.75 2.48842,-2.75 h 2.41518 2.4152 l 1.2,1.2 1.2,1.2 v 1.83415 1.83414 l -6.99742,20.71586 -6.9974,20.71585 -2.55837,2.25 -2.55837,2.25 h -2.32179 -2.32179 z m 79.23611,0.34348 -1.2,-1.2 v -2.34545 -2.34546 l 2.4545,-2.45454 2.4546,-2.45455 h 37.8229 37.823 l 2.2794,-1.59656 2.2794,-1.59655 -0.3069,-2.15345 -0.3069,-2.15344 -36.1707,-0.5 -36.1707,-0.5 -2.564,-2.40993 -2.564,-2.40993 -0.6443,-3.43429 -0.6443,-3.43428 1.2784,-3.87347 1.2784,-3.87347 3.1006,-3.32648 3.1006,-3.32649 3.5,-2.45583 3.5,-2.45583 39.8452,-0.29339 39.8453,-0.29339 1.4047,1.16583 1.4048,1.16584 v 2.24119 2.24119 l -2.6364,2.63637 -2.6364,2.63636 h -37.6411 -37.6411 l -2.2794,1.59656 -2.2794,1.59655 0.3069,2.15345 0.3069,2.15344 36.1708,0.5 36.1709,0.5 2.5272,2.37558 2.5273,2.37558 0.6536,2.97551 0.6535,2.97551 -1.2199,4.35705 -1.2199,4.35705 -3.3544,3.91888 -3.3545,3.91888 -4.5164,2.12298 -4.5164,2.12298 h -38.8109 -38.8109 z m 143.799,-0.80172 -1.0712,-2.00173 5.6832,-16.74827 5.6833,-16.74828 0.4512,-1.22757 0.4512,-1.22758 -18.8484,-0.27242 -18.8483,-0.27243 -0.3122,-3.23334 -0.3121,-3.23334 2.5167,-2.51666 2.5167,-2.51666 h 42.8454 42.84555 l 1.2,1.2 1.2,1.2 v 2.34545 2.34546 l -2.4545,2.45454 -2.4546,2.45455 h -18.80225 -18.8023 l -5.9627,17.75 -5.9627,17.75 -2.2351,2.25 -2.235,2.25 h -3.0103 -3.0103 z m 75.45825,0.13869 -3.0428,-1.85556 -1.8226,-2.78172 -1.8227,-2.78173 v -7.10898 -7.10898 l 4.1039,-12 4.1038,-12 2.6281,-2.30488 2.628,-2.30489 2.5296,0.30489 2.5296,0.30488 1.0802,1.72538 1.0802,1.72538 -4.2293,12.81487 -4.2295,12.81487 v 2.59897 2.59896 l 1.9112,2.36079 1.9112,2.36078 h 27.3388 27.3388 l 2.5,-0.73935 2.5,-0.73934 3.2257,-2.87117 3.2259,-2.87116 1.9406,-4.52754 1.9408,-4.52754 3.1917,-9.36195 3.1918,-9.36195 1.4954,-1.69332 1.4955,-1.69332 2.9374,-0.64513 2.9371,-0.64513 1.4591,1.21089 1.459,1.2109 v 1.93138 1.93139 l -3.5762,10.69617 -3.5765,10.69617 -2.6735,4.93346 -2.6738,4.93346 -4.9479,4.87777 -4.948,4.87778 -5.3316,2.43876 -5.3317,2.43877 -30.7203,-0.004 -30.7205,-0.004 -3.0428,-1.85555 z m 95.7428,0.66303 -1.2,-1.2 v -1.78329 -1.78328 l 3.514,-10.21358 3.514,-10.21357 1.4986,-2.28726 1.4987,-2.28727 2.4152,-0.60617 2.4152,-0.60617 2.0721,0.65768 2.0722,0.65769 v 2.77606 2.77606 l -2,5.8131 -2,5.8131 v 0.90616 0.90617 l 32.3298,-0.31272 32.3297,-0.31271 3.7554,-2.86583 3.7554,-2.86583 1.9271,-3.13417 1.9271,-3.13417 1.0589,-3.87111 1.0589,-3.87111 -1.1387,-2.74917 -1.1388,-2.74917 -2.4794,-1.12972 -2.4795,-1.12972 h -35.4178 -35.4177 l -1.0656,-1.99097 -1.0655,-1.99097 1.5407,-2.97938 1.5407,-2.97939 1.9239,-1.02965 1.9239,-1.02964 36.8158,0.002 36.8157,0.002 3.4849,1.74844 3.485,1.74845 2.3145,4 2.3146,4 -0.4132,6.71129 -0.4132,6.71129 -2.8223,5.78871 -2.8222,5.78871 -5.5641,5.54421 -5.564,5.54421 -4.7391,2.20579 -4.7391,2.20579 h -37.811 -37.8109 l -1.2,-1.2 z m 112.4876,-1.06057 -2.8124,-2.25064 -0.5546,-4.13521 -0.5547,-4.13522 2.258,-7.29555 2.2579,-7.29555 2.3137,-2.31363 2.3136,-2.31363 h 42.4637 42.4636 l 1.5818,0.60699 1.5818,0.60699 v 2.93846 2.93847 l -2.4545,2.45454 -2.4546,2.45455 h -39.0264 -39.0264 l -0.6269,2.49776 -0.6269,2.49777 0.5765,1.50223 0.5764,1.50224 h 37.9496 37.9496 l 1.5818,0.60699 1.5818,0.60699 v 2.75665 2.75664 l -2.6364,2.63637 -2.6363,2.63636 -40.6137,-0.005 -40.6136,-0.005 -2.8124,-2.25064 z m 100.5124,1.06057 -1.2,-1.2 v -1.41705 -1.41706 l 6.1188,-18.13294 6.1189,-18.13295 2.4477,-3.27057 2.4478,-3.27058 2.4478,-1.60389 2.4479,-1.60389 4.2981,-0.48446 4.2982,-0.48446 10.4374,7.84832 10.4374,7.84833 1.5,1.23706 1.5,1.23706 11,8.47691 11,8.47691 2.2795,1.2314 2.2795,1.23141 1.489,-1.48895 1.4889,-1.48894 5.0533,-14.94583 5.0533,-14.94583 2.484,-2.25 2.484,-2.25 h 1.8625 1.8624 l 1.5818,0.60699 1.5818,0.60699 v 2.49879 2.49879 l -5.6205,16.64422 -5.6205,16.64422 -1.4813,2.89731 -1.4814,2.89732 -2.1482,2.10457 -2.1481,2.10457 -2.7971,1.24811 -2.797,1.24812 h -3.0228 -3.0227 l -4.6576,-3.20451 -4.6576,-3.2045 -1.5226,-1.2555 -1.5226,-1.2555 -12.5,-9.71607 -12.5,-9.71608 -5.86,-4.32392 -5.86,-4.32392 h -1.3548 -1.3548 l -1.2034,2.24858 -1.2034,2.24858 -4.7471,13.84676 -4.747,13.84676 -2.2591,2.40466 -2.259,2.40466 h -2.6257 -2.6257 z m 142.7886,-0.82133 -1.0818,-2.02133 5.9346,-17.72867 5.9346,-17.72867 -18.3646,-0.27198 -18.3646,-0.27198 -1.0537,-1.96899 -1.0538,-1.96899 1.5407,-2.97938 1.5407,-2.97939 1.9239,-1.02965 1.9239,-1.02964 h 42.3658 42.3657 l 1.2,1.2 1.2,1.2 v 2.16364 2.16363 l -2.6364,2.63637 -2.6363,2.63636 h -18.7059 -18.706 l -5.9077,17.60509 -5.9077,17.60508 -2.3864,2.39492 -2.3863,2.39491 h -2.8285 -2.8284 z m -235.3219,-38.64534 -0.6667,-0.66666 v -2.87879 -2.87879 l 2.4545,-2.45454 2.4546,-2.45455 h 44.5103 44.5102 l 1.0316,1.92756 1.0316,1.92756 -0.6454,1.82244 -0.6454,1.82244 -2.0253,2.25 -2.0253,2.25 h -44.659 -44.6591 z"
       id="path926" />
  </g>
</svg>
