<svg viewBox="0 0 4604.8262 770.90399" xmlns="http://www.w3.org/2000/svg">
    <path fill="#FFF" d="m 244.32571,766.37611 c -1.78541,-0.72043 -1.54661,-3.71032 0.68678,-8.59862 1.06523,-2.3315 2.61072,-6.5839 3.43442,-9.44977 0.8237,-2.86588 2.14161,-6.69088 2.92867,-8.5 0.78707,-1.80913 2.47616,-6.57755 3.75354,-10.59648 1.27738,-4.01893 2.68792,-7.53298 3.13455,-7.80901 2.27724,-1.40742 -0.0119,-3.59076 -7.93796,-7.57099 -13.33192,-6.69491 -24.14612,-12.72332 -30.44513,-16.97173 -3.13232,-2.11262 -6.16982,-3.84112 -6.75,-3.84112 -0.58018,0 -1.05487,-0.41968 -1.05487,-0.93261 0,-0.51294 -0.89734,-1.21742 -1.99408,-1.56551 -1.09674,-0.34809 -2.55924,-1.17559 -3.25,-1.83889 -0.69076,-0.6633 -4.26058,-3.33312 -7.93294,-5.93294 -3.67236,-2.59982 -7.27236,-5.30496 -8,-6.01141 -0.72764,-0.70646 -2.89798,-2.37331 -4.82298,-3.70411 -1.925,-1.33081 -4.1756,-3.116 -5.00133,-3.96709 -0.82574,-0.85109 -4.42019,-4.02244 -7.98768,-7.04744 -8.31852,-7.05358 -22.95741,-21.69247 -30.01099,-30.01099 -3.025,-3.56749 -6.18775,-7.16194 -7.02834,-7.98768 -0.84058,-0.82573 -3.07896,-3.52633 -4.97416,-6.00133 -1.8952,-2.475 -3.70413,-4.725 -4.01984,-5 -0.31571,-0.275 -1.66253,-2.075 -2.99293,-4 -1.3304,-1.925 -2.99622,-4.09464 -3.70182,-4.82143 -0.7056,-0.72678 -1.28291,-1.70714 -1.28291,-2.17857 0,-0.47143 -0.5839,-1.45179 -1.29755,-2.17857 -2.13706,-2.1764 -7.70245,-10.60728 -7.70245,-11.66827 0,-0.54257 -0.34863,-1.13649 -0.77474,-1.31983 -0.79189,-0.3407 -9.568718,-14.91958 -12.241155,-20.33333 -0.814504,-1.65 -1.715717,-3.225 -2.002695,-3.5 -0.286978,-0.275 -1.926551,-3.425 -3.643495,-7 -10.101913,-21.03408 -17.499742,-39.94091 -22.302858,-57 -0.696855,-2.475 -1.621799,-5.625 -2.05543,-7 -0.433631,-1.375 -1.281442,-4.6375 -1.884024,-7.25 -4.126103,-17.88877 -4.759126,-21.30805 -8.284707,-44.75 -1.748932,-11.62883 -1.763927,-68.62256 -0.02092,-79.5 0.705059,-4.4 1.754087,-11.15 2.331174,-15 1.817562,-12.12577 5.702035,-30.66215 7.858474,-37.5 0.433631,-1.375 1.350884,-4.525 2.038339,-7 1.6019,-5.76722 4.868479,-15.91741 5.953753,-18.5 0.462249,-1.1 2.769236,-6.95 5.126637,-13 6.081242,-15.60681 24.759527,-52.40262 27.073057,-53.33333 0.45573,-0.18334 0.82859,-0.76616 0.82859,-1.29516 0,-0.93505 9.70927,-15.87084 10.96761,-16.87151 0.34581,-0.275 1.70948,-2.075 3.03038,-4 1.3209,-1.925 4.36453,-5.975 6.76362,-9 2.3991,-3.025 5.07576,-6.4 5.94814,-7.5 10.95167,-13.80909 35.62306,-38.06809 50.31519,-49.47416 2.46128,-1.91079 4.70006,-3.73247 4.97506,-4.04818 0.275,-0.31571 2.075,-1.65566 4,-2.97766 1.925,-1.322 3.725,-2.69037 4,-3.04082 0.76969,-0.98086 24.85719,-16.95918 25.56616,-16.95918 0.3438,0 1.81957,-0.83304 3.27947,-1.851188 7.93333,-5.5328 41.4632,-22.14881 44.69465,-22.14881 0.73793,0 1.57457,-0.376815 1.85921,-0.837366 0.47296,-0.765275 32.67844,-11.502359 42.10051,-14.036023 50.6503,-13.620232 114.01356,-14.776446 163.88738,-2.990517 9.88148,2.335141 10.88561,2.324719 13.11262,-0.136094 0.99549,-1.1 2.37773,-2 3.07165,-2 0.69393,0 1.41168,-0.368713 1.59502,-0.819361 0.32062,-0.78813 2.92324,-2.651156 21.75063,-15.569728 4.72049,-3.239 8.8077,-6.164717 9.0827,-6.501595 0.275,-0.336877 1.7299,-1.246263 3.23312,-2.020856 1.50322,-0.774594 3.52822,-2.142533 4.5,-3.039865 2.88873,-2.667419 11.04351,-8.048595 12.19706,-8.048595 0.5884,0 1.06982,-0.373959 1.06982,-0.83102 0,-0.457061 1.2375,-1.469561 2.75,-2.25 1.5125,-0.780439 3.8704,-2.43148 5.23978,-3.66898 1.36938,-1.2375 2.79974,-2.25 3.17857,-2.25 0.37884,0 1.28344,-0.577797 2.01022,-1.283994 1.15185,-1.11922 7.99068,-5.868739 19.33029,-13.424744 4.44139,-2.959467 5.3453,-1.729147 6.52036,8.874899 0.50793,4.583612 1.39478,11.258839 1.97078,14.833839 0.97477,6.049949 2.31694,16.333378 3.52397,27 0.54046,4.776043 0.98638,7.86972 2.52247,17.5 0.52637,3.3 1.19733,8.475 1.49103,11.5 0.2937,3.025 0.77187,6.85 1.0626,8.5 0.29072,1.65 0.76194,5.25 1.04715,8 0.28521,2.75 0.92875,6.574998 1.4301,8.499998 0.50134,1.925 0.91404,4.75795 0.9171,6.29545 0.006,3.25038 3.48387,6.96864 11.11567,11.88567 1.43511,0.92461 3.23493,2.27461 3.9996,3 0.76467,0.72538 3.03886,2.54957 5.05375,4.05375 2.01489,1.50418 4.26553,3.30418 5.00142,4 0.73588,0.69582 4.69846,4.19013 8.80573,7.76513 28.69972,24.98048 55.17631,57.96658 74.24595,92.5 2.9983,5.42967 11.57952,22.86587 14.02625,28.5 0.83597,1.925 2.2102,5.075 3.05386,7 7.79778,17.79259 17.94705,53.96802 21.60288,77 6.49247,40.90309 5.63768,84.57944 -2.45618,125.5 -3.40495,17.2146 -11.92866,46.26694 -16.50007,56.2391 -1.06881,2.33151 -1.94328,4.62487 -1.94328,5.09636 0,0.4715 -0.62592,2.1639 -1.39094,3.7609 -0.76502,1.597 -2.16443,4.70364 -3.1098,6.90364 -3.47144,8.07849 -12.08675,25.17212 -15.74111,31.23193 -2.06698,3.42756 -3.75815,6.69006 -3.75815,7.25 0,0.55994 -0.45,1.01807 -1,1.01807 -0.55,0 -1,0.465 -1,1.03334 0,0.9872 -13.64118,21.92752 -14.96121,22.96666 -0.34933,0.275 -1.71679,2.075 -3.03879,4 -1.322,1.925 -2.65288,3.725 -2.95751,4 -0.30463,0.275 -1.782,2.14855 -3.28305,4.16344 -1.50105,2.01489 -3.29849,4.27574 -3.99431,5.0241 -0.69582,0.74835 -3.74013,4.26873 -6.76513,7.82305 -9.5371,11.20594 -29.45998,30.52916 -41.5,40.2509 -8.56481,6.91568 -13.7027,10.84172 -18,13.75442 -2.75,1.86395 -5.59464,3.97289 -6.32143,4.68654 -0.72678,0.71365 -1.70714,1.29755 -2.17857,1.29755 -0.47143,0 -1.45179,0.5625 -2.17857,1.25 -2.02309,1.91373 -12.75348,8.43771 -25.82143,15.6992 -20.34988,11.30784 -48.60881,22.86685 -71,29.04177 -2.475,0.68254 -5.625,1.59063 -7,2.01797 -1.375,0.42735 -5.2,1.32332 -8.5,1.99106 -3.3,0.66774 -7.125,1.57984 -8.5,2.0269 -1.375,0.44706 -4.3,1.05404 -6.5,1.34885 -2.2,0.2948 -6.925,1.01353 -10.5,1.59717 -40.46259,6.60576 -90.54115,5.12159 -130.5,-3.8676 -2.2,-0.49491 -5.575,-1.20903 -7.5,-1.58693 -1.925,-0.3779 -4.625,-1.04694 -6,-1.48676 -1.375,-0.43982 -4.525,-1.35552 -7,-2.03488 -6.66382,-1.82914 -27.75213,-8.96158 -32.44818,-10.97454 -4.60625,-1.97447 -5.28435,-1.61635 -7.53201,3.97779 -0.77345,1.925 -1.69299,3.725 -2.04343,4 -0.35044,0.275 -2.24851,3.65 -4.21794,7.5 -1.96942,3.85 -4.72895,9.025 -6.13229,11.5 -1.40333,2.475 -3.72599,6.8625 -5.16145,9.75 -2.49804,5.0249 -3.42868,5.7119 -6.2147,4.58772 z m 182.75,-52.36789 c 23.67389,-2.34832 30.05631,-3.37699 50.21956,-8.09402 15.84136,-3.70595 42.72839,-12.38276 44.53353,-14.37156 0.4108,-0.4526 -0.15309,-0.48614 -1.25309,-0.0745 -1.1,0.41161 -4.925,1.17117 -8.5,1.68791 -3.575,0.51674 -7.625,1.15211 -9,1.41194 -3.13637,0.59266 -36.84081,0.68454 -37.79599,0.10303 -0.38721,-0.23573 -3.62901,-0.74705 -7.20401,-1.13626 -3.575,-0.38921 -9.425,-1.36689 -13,-2.17261 -3.575,-0.80572 -8.34736,-1.85741 -10.60523,-2.33708 -4.02751,-0.85563 -16.51274,-4.8888 -27.39477,-8.84948 -12.9507,-4.7136 -28.65758,-12.42763 -44.81377,-22.00912 -7.05228,-4.18238 -27.98981,-18.42492 -31.35221,-21.32702 -4.38609,-3.78565 -6.36132,-5.39084 -7.49808,-6.0934 -1.15777,-0.71558 -8.33594,10.08114 -8.33594,12.53808 0,0.79436 -0.9,2.25877 -2,3.25426 -1.1,0.99549 -2,2.30987 -2,2.92086 0,0.61098 -1.8,4.19114 -4,7.9559 -2.2,3.76476 -4,7.38527 -4,8.04557 0,0.6603 -0.80417,2.0729 -1.78704,3.13911 -0.98288,1.06621 -2.41983,3.51356 -3.19323,5.43856 -0.7734,1.925 -1.69291,3.725 -2.04335,4 -0.35044,0.275 -2.26464,3.71625 -4.25378,7.64723 -3.17271,6.26996 -3.40833,7.21127 -1.91961,7.66907 0.93336,0.28701 6.19701,2.07702 11.69701,3.97779 41.11556,14.2093 87.81245,20.41412 125.5,16.67574 z M 272.69557,679.03839 c 0.29315,-1.375 1.84861,-5.9133 3.45657,-10.0851 1.60796,-4.17181 2.92357,-8.05394 2.92357,-8.62696 0,-0.57302 1.28811,-4.35973 2.86246,-8.4149 1.57435,-4.05517 3.69372,-10.07304 4.70971,-13.37304 1.01599,-3.3 2.2715,-6.57879 2.79003,-7.2862 0.75132,-1.02501 0.0488,-1.12655 -3.45971,-0.5 -7.51484,1.34201 -43.70571,0.93226 -50.90249,-0.57631 -22.31276,-4.67715 -40.42574,-12.07208 -57.40328,-23.43587 -10.30656,-6.89861 -12.15495,-8.41031 -23.47837,-19.20162 l -8.39446,-8 6.38199,8.5 c 3.51009,4.675 6.61065,8.725 6.89012,9 0.27947,0.275 3.73229,4.325 7.67293,9 9.93938,11.79165 30.32531,31.51347 41.33107,39.98465 2.475,1.90502 4.725,3.72403 5,4.04225 0.275,0.31821 3.425,2.57984 7,5.02584 3.575,2.44599 7.09464,5.00976 7.82143,5.69726 0.72678,0.6875 1.70714,1.25 2.17857,1.25 0.47143,0 1.45179,0.57393 2.17857,1.27541 1.79922,1.73655 18.62568,11.72459 19.75196,11.72459 0.49654,0 1.0528,0.33949 1.23614,0.75441 0.18333,0.41493 3.93333,2.59681 8.33333,4.84862 7.18995,3.67965 8.13097,3.93234 9.29343,2.49559 0.71139,-0.87924 1.53328,-2.72362 1.82643,-4.09862 z m 195.81994,-13.10353 c 3.33311,-0.60694 10.5602,-2.24289 16.0602,-3.63545 5.5,-1.39256 11.0125,-2.74843 12.25,-3.01305 1.2375,-0.26462 2.25,-0.87866 2.25,-1.36455 0,-0.48588 0.63035,-0.88342 1.40078,-0.88342 1.18901,0 7.24467,-2.95329 19.744,-9.62897 1.45462,-0.77689 3.19722,-2.07819 3.87244,-2.89178 0.67522,-0.81359 1.67262,-1.47925 2.21644,-1.47925 3.90805,0 27.7478,-24.33365 36.24901,-37 6.22898,-9.28086 17.51733,-31.29375 17.51733,-34.15976 0,-0.79213 0.42231,-1.86774 0.93846,-2.39024 0.51616,-0.5225 2.13219,-5.44686 3.59118,-10.94302 1.45899,-5.49616 2.83684,-10.29094 3.06189,-10.65508 0.80277,-1.2989 4.38982,-20.40831 4.39906,-23.43523 0.005,-1.69584 0.29855,-3.37248 0.65195,-3.72588 1.15672,-1.15671 1.69307,-12.80195 1.66686,-36.19079 -0.0249,-22.26724 -1.88694,-42.04298 -5.35878,-56.91418 -5.99929,-25.69727 -13.30742,-51.31796 -16.85383,-59.08582 -0.5022,-1.1 -2.12106,-5.15 -3.59746,-9 -4.01853,-10.47912 -12.18354,-27.93201 -16.84194,-36 -1.27026,-2.2 -3.831,-6.925 -5.69054,-10.5 -1.85953,-3.575 -5.08779,-9.06281 -7.17391,-12.19513 -2.08612,-3.13232 -3.79294,-6.16982 -3.79294,-6.75 0,-0.58018 -0.37396,-1.05487 -0.83102,-1.05487 -0.45706,0 -1.46884,-1.2375 -2.24841,-2.75 -0.77956,-1.5125 -1.67687,-2.975 -1.99403,-3.25 -0.31716,-0.275 -2.53666,-3.425 -4.93223,-7 -2.39557,-3.575 -4.7243,-6.65 -5.17495,-6.83333 -0.45065,-0.18334 -0.81936,-0.98667 -0.81936,-1.78519 0,-1.14197 -0.42687,-1.22339 -2,-0.38148 -1.1,0.5887 -2,1.85007 -2,2.80305 0,0.95297 -1.07382,3.31295 -2.38626,5.24438 -1.31245,1.93143 -4.71721,7.9984 -7.56614,13.48213 -2.84893,5.48374 -7.18593,13.57044 -9.63779,17.97044 -2.45185,4.4 -5.14662,9.35 -5.98837,11 -0.84176,1.65 -3.31316,6.15 -5.49202,10 -2.17886,3.85 -5.09134,9.25 -6.47219,12 -1.38085,2.75 -4.09912,7.7 -6.04062,11 -1.94149,3.3 -3.78196,6.7875 -4.08993,7.75 -0.30797,0.9625 -0.95746,1.75 -1.44331,1.75 -0.48585,0 -0.88337,0.79987 -0.88337,1.77749 0,0.97763 -0.78683,2.89013 -1.74851,4.25 -0.96167,1.35988 -2.69201,4.27251 -3.84518,6.47251 -1.15318,2.2 -3.79946,7.15 -5.88063,11 -2.08117,3.85 -4.86965,9.025 -6.19663,11.5 -1.32698,2.475 -3.77828,6.975 -5.44734,10 -1.66905,3.025 -4.42516,8.2 -6.12469,11.5 -1.69953,3.3 -3.35262,6.225 -3.67354,6.5 -0.52586,0.45062 -7.65323,13.88346 -13.92807,26.25 -1.3256,2.6125 -2.75173,4.75 -3.16919,4.75 -0.41747,0 -0.51841,6.78848 -0.22433,15.0855 0.50768,14.32318 -0.3763,25.87779 -2.80498,36.6645 -4.19586,18.63541 -5.18448,21.49945 -13.20324,38.25 -6.25264,13.06127 -17.80534,29.17435 -28.30851,39.48318 -5.45783,5.35684 -12.2878,11.32972 -15.44516,13.50695 -1.925,1.32743 -3.725,2.72552 -4,3.10686 -0.7593,1.05292 -16.10607,10.33968 -19.75837,11.95635 -1.90552,0.84346 -3.69952,2.64666 -4.41151,4.43411 -0.65999,1.6569 -1.37509,3.33756 -1.58913,3.7348 -0.85993,1.59597 34.69649,22.77775 38.23547,22.77775 0.74628,0 1.50687,0.3375 1.69021,0.75 0.39524,0.88931 13.62458,6.5767 19.33333,8.31156 2.2,0.66856 4.9,1.55192 6,1.96302 1.1,0.4111 4.025,1.30094 6.5,1.97741 2.475,0.67648 5.625,1.58642 7,2.0221 2.72933,0.8648 11.35937,2.54173 20,3.88627 8.13737,1.26623 37.46018,1.25706 44.4398,-0.0139 z m 155.38875,-41.68048 c 16.31154,-16.19106 21.44785,-21.9587 31.8065,-35.71599 6.47592,-8.60066 18.36495,-26.06667 18.36495,-26.97971 0,-0.30604 1.69656,-3.3608 3.77013,-6.78836 3.62304,-5.98878 11.42387,-21.42988 14.51535,-28.73193 0.81499,-1.925 2.43416,-5.6326 3.59816,-8.2391 1.164,-2.60651 2.11636,-5.20011 2.11636,-5.76357 0,-0.56346 0.43428,-1.80586 0.96506,-2.7609 1.59769,-2.8747 7.91424,-22.95492 9.9832,-31.73643 0.64791,-2.75 1.57985,-6.575 2.07098,-8.5 1.84086,-7.21525 3.85732,-19.20731 6.04219,-35.93341 1.43922,-11.01778 1.43696,-54.79925 -0.003,-65.89678 -2.06273,-15.89265 -4.17485,-28.47936 -6.06948,-36.16981 -0.47425,-1.925 -1.40123,-5.75 -2.05995,-8.5 -2.47101,-10.31577 -7.71781,-26.57347 -12.02161,-37.25 -0.49884,-1.2375 -1.31111,-3.2625 -1.80503,-4.5 -3.21908,-8.06527 -12.25468,-26.72363 -16.82822,-34.75 -6.35121,-11.14612 -17.61332,-28.70534 -19.24135,-30 -0.34581,-0.275 -1.71039,-2.075 -3.03239,-4 -1.322,-1.925 -2.67641,-3.725 -3.00978,-4 -0.33338,-0.275 -1.27873,-1.4858 -2.10077,-2.69066 -1.89808,-2.782 -9.91213,-12.19917 -16.38945,-19.25896 -16.99189,-18.51985 -46.56587,-43.38451 -48.86585,-41.08453 -1.0002,1.0002 -5.78047,9.45974 -12.45095,22.03415 -4.90019,9.23728 -8.78098,16.28132 -11.56957,21 -1.46264,2.475 -3.43656,6.075 -4.38649,8 -0.94993,1.925 -2.06464,3.65 -2.47714,3.83333 -0.4125,0.18334 -0.75,1.01387 -0.75,1.84563 0,0.83177 -0.91206,2.79316 -2.02679,4.35866 -1.11473,1.5655 -2.67173,4.38993 -3.45999,6.27651 l -1.43321,3.43014 6.46,7.54086 c 3.55259,4.14747 6.45959,7.82382 6.45959,8.16967 0,0.34586 0.94476,1.62251 2.09947,2.83701 1.15471,1.21451 3.936,4.90819 6.18064,8.20819 2.24464,3.3 4.44988,6.15 4.90053,6.33333 0.45065,0.18334 0.81936,0.90109 0.81936,1.59502 0,0.69392 0.9,2.07616 2,3.07165 1.1,0.99549 2,2.34549 2,3 0,0.65451 0.9,2.00451 2,3 1.1,0.99549 2,2.33038 2,2.96643 0,0.63604 0.7875,2.05171 1.75,3.14593 1.84282,2.095 3.7067,5.08407 5.99729,9.61776 0.75865,1.50157 1.75773,2.96396 2.22018,3.24977 0.46245,0.28581 2.52203,3.76838 4.57685,7.73905 2.05483,3.97067 4.64225,8.80827 5.74983,10.75023 7.20304,12.62934 24.44601,51.19596 26.16888,58.53083 0.27898,1.18771 1.3899,4.22214 2.56275,7 1.11763,2.64711 6.86715,20.85416 7.31928,23.17803 0.19496,1.00209 0.61035,2.49697 0.92309,3.32197 0.65062,1.71633 4.47096,17.24518 5.16634,21 0.52933,2.85828 1.10388,5.614 2.50192,12 1.11436,5.09023 1.67407,8.95109 3.00742,20.74515 0.51268,4.53483 1.14738,8.59341 1.41044,9.01906 0.38806,0.62789 1.60489,22.39912 1.99627,35.71671 0.19548,6.6516 -1.53709,36.30249 -2.36762,40.51908 -0.48749,2.475 -1.11367,6.3 -1.39151,8.5 -0.464,3.67404 -1.58911,9.51784 -3.5618,18.5 -4.90309,22.32492 -14.4132,45.7141 -26.42919,65 -2.22739,3.575 -4.40636,6.95 -4.84216,7.5 -0.4358,0.55 -3.0802,4.07769 -5.87644,7.83931 -7.52327,10.12059 -3.25577,6.94474 14.94673,-11.12332 z m -315.32855,-0.43026 c 16.02845,-5.18553 17.65388,-6.18145 21.40719,-13.11643 5.82449,-10.76189 9.99232,-18.48237 13.45249,-24.9193 1.84782,-3.4375 4.71108,-8.725 6.36279,-11.75 1.65172,-3.025 4.34858,-7.975 5.99303,-11 1.64445,-3.025 3.88018,-7.075 4.9683,-9 1.08812,-1.925 3.9661,-7.325 6.39551,-12 2.42941,-4.675 4.64363,-8.725 4.92049,-9 0.27686,-0.275 1.17692,-1.85 2.00012,-3.5 0.8232,-1.65 3.11428,-5.925 5.09129,-9.5 1.97701,-3.575 4.94898,-8.975 6.60438,-12 1.6554,-3.025 3.90009,-7.075 4.98821,-9 1.08812,-1.925 3.9661,-7.325 6.39551,-12 2.42941,-4.675 4.64372,-8.725 4.92069,-9 0.27697,-0.275 2.47346,-4.325 4.88109,-9 2.40763,-4.675 4.69713,-8.85531 5.08778,-9.28957 0.39065,-0.43426 -0.11547,-4.70926 -1.12472,-9.5 -4.95679,-23.52923 -14.44929,-44.16891 -29.42349,-63.97595 l -3.22475,-4.26551 -1.75478,5.76551 c -0.96513,3.17104 -2.13421,6.19302 -2.59796,6.71552 -0.46374,0.5225 -0.84317,1.68242 -0.84317,2.57759 0,0.89518 -1.18666,4.51768 -2.63702,8.05 -1.45036,3.53233 -2.98986,7.77241 -3.42111,9.42241 -0.43125,1.65 -3.09506,9.525 -5.91959,17.5 -2.82452,7.975 -5.98072,16.975 -7.01378,20 -1.03305,3.025 -3.74592,10.675 -6.0286,17 -2.28267,6.325 -4.37453,12.4 -4.64858,13.5 -0.27404,1.1 -0.88344,2.9 -1.35423,4 -0.47079,1.1 -1.82969,4.925 -3.01977,8.5 -1.19009,3.575 -2.52549,7.4 -2.96755,8.5 -2.18307,5.43217 -4.50968,12.04918 -8.59023,24.4311 -2.45946,7.4629 -4.87596,14.4689 -5.37,15.5689 -0.49405,1.1 -1.85734,4.925 -3.02954,8.5 -1.1722,3.575 -2.53031,7.4 -3.01804,8.5 -0.48772,1.1 -2.69509,7.4 -4.90525,14 -5.93634,17.7271 -6.30713,18.81868 -7.13325,21 -3.04539,8.04119 -4.50288,12.14215 -7.51531,21.14598 -1.88548,5.6355 -3.42815,10.48433 -3.42815,10.77519 0,0.85678 5.87066,-0.52016 15.5,-3.63544 z M 117.19778,527.36339 c -1.17884,-2.02721 -1.46351,-1.37835 -0.49853,1.13634 0.34294,0.8937 0.83419,1.41426 1.09166,1.15679 0.25747,-0.25747 -0.009,-1.28938 -0.59313,-2.29313 z m -2.63639,-8.93269 c -3.37859,-12.73655 -4.44905,-22.09771 -4.46725,-39.06602 -0.0101,-9.44554 0.45555,-19.57054 1.03485,-22.5 3.03446,-15.34492 3.31497,-16.45648 7.0221,-27.82629 2.39694,-7.35143 13.86029,-31 15.02686,-31 0.41964,0 1.04779,-0.89734 1.39588,-1.99408 0.34809,-1.09674 1.18073,-2.55924 1.8503,-3.25 0.66957,-0.69076 2.31946,-2.83092 3.66642,-4.75592 5.19147,-7.41938 16.85878,-19.69063 24.74049,-26.02113 4.7802,-3.83941 4.5396,-1.51284 2.22129,-21.47887 -1.52646,-13.14637 -1.8986,-34.58744 -0.89924,-51.81038 1.3467,-23.20911 1.41891,-23.70311 7.95302,-54.40964 0.4939,-2.321 2.7544,-9.521 5.02334,-16 2.26895,-6.47899 4.36252,-12.79248 4.65238,-14.02998 0.28987,-1.2375 0.92457,-2.25 1.41046,-2.25 0.48588,0 0.88342,-0.49395 0.88342,-1.09767 0,-1.55759 8.23958,-18.33358 9.20208,-18.73566 0.43885,-0.18334 0.79792,-0.77726 0.79792,-1.31983 0,-0.54257 1.35,-2.94865 3,-5.34684 1.65,-2.39819 3,-4.84177 3,-5.43018 0,-0.5884 0.35298,-1.06982 0.78439,-1.06982 0.43142,0 1.57219,-1.33363 2.53504,-2.96361 0.96286,-1.62999 2.29739,-3.54309 2.96561,-4.25135 0.66823,-0.70825 2.97807,-3.48013 5.13298,-6.15973 2.15491,-2.6796 6.87991,-7.78833 10.5,-11.35273 5.78443,-5.69544 6.75563,-7.36974 2.1253,-3.66389 -0.84883,0.67935 -6.09136,4.62607 -11.65007,8.77049 -19.25464,14.35571 -42.42046,36.7865 -55.3779,53.62082 -1.90502,2.475 -3.72198,4.725 -4.03769,5 -0.31571,0.275 -1.65566,2.075 -2.97766,4 -1.322,1.925 -2.67355,3.725 -3.00343,4 -0.32989,0.275 -2.94213,4.1 -5.80498,8.5 -2.86285,4.4 -5.56204,8.45 -5.99818,9 -0.43615,0.55 -1.89559,3.025 -3.2432,5.5 -1.34762,2.475 -2.71952,4.725 -3.04867,5 -1.26838,1.05971 -14.72773,28.9604 -18.2677,37.8682 -11.57051,29.11545 -17.154966,51.42734 -21.557982,86.1318 -1.381202,10.88659 -1.40955,54.05062 -0.04236,64.5 2.434392,18.60598 4.987532,32.81938 7.993491,44.5 1.751971,6.80785 5.186831,18.52648 6.008771,20.5 0.45814,1.1 1.80013,4.925 2.9822,8.5 1.18208,3.575 3.01161,8.4076 4.06564,10.7391 1.05402,2.33151 1.9164,4.84401 1.9164,5.58333 0,1.42543 1.09006,2.92085 1.69102,2.31988 0.19674,-0.19673 -0.34567,-3.00923 -1.20534,-6.25 z M 378.65048,375.28839 c 0.33708,-1.5125 1.24972,-4.17657 2.02809,-5.92016 0.77836,-1.7436 1.69426,-4.56546 2.03533,-6.27081 0.34108,-1.70536 1.01201,-3.34284 1.49097,-3.63886 0.47896,-0.29601 0.87084,-1.63665 0.87084,-2.97919 0,-1.34254 0.45,-2.44098 1,-2.44098 0.55,0 1,-0.60068 1,-1.33484 0,-1.44565 3.52447,-12.91085 4.96926,-16.16516 0.48836,-1.1 1.64898,-4.475 2.57915,-7.5 0.93017,-3.025 2.27242,-6.85 2.98278,-8.5 0.71035,-1.65 2.28713,-6.15 3.50394,-10 1.21682,-3.85 2.6067,-7.4275 3.08863,-7.95 0.48193,-0.5225 0.87624,-1.95844 0.87624,-3.19098 0,-1.23254 0.39188,-2.48318 0.87084,-2.77919 0.47896,-0.29602 1.14989,-1.9335 1.49097,-3.63886 0.34107,-1.70535 1.24706,-4.52721 2.01332,-6.27081 0.76626,-1.74359 2.17632,-5.87016 3.13346,-9.17016 0.95715,-3.3 2.31003,-7.35 3.0064,-9 2.52079,-5.97277 4.45947,-11.5 4.03363,-11.5 -0.23935,0 0.88929,-3.21189 2.5081,-7.13754 1.6188,-3.92564 2.94328,-7.69569 2.94328,-8.37787 0,-0.68219 0.75456,-2.9828 1.6768,-5.11247 0.92225,-2.12966 1.79092,-4.32212 1.93038,-4.87212 0.31893,-1.25779 1.93454,-5.91753 5.37411,-15.5 1.48064,-4.125 3.61666,-10.22731 4.74671,-13.56068 l 2.05463,-6.06068 -3.03339,-2.43932 c -1.66837,-1.34163 -4.65526,-3.33932 -6.63755,-4.43932 -1.98228,-1.1 -4.17101,-2.53302 -4.86384,-3.18449 -0.69283,-0.65147 -2.26953,-1.49962 -3.50377,-1.88478 -1.23424,-0.38516 -2.46908,-0.97861 -2.74408,-1.31877 -1.00776,-1.24657 -25.73475,-12.9754 -33.5,-15.89016 -11.12001,-4.174 -23.808,-7.85321 -31.5,-9.13423 -3.575,-0.59537 -7.625,-1.34602 -9,-1.6681 -4.75739,-1.11437 -22.54148,-2.05993 -32.63742,-1.73529 -14.49802,0.4662 -32.76103,4.37144 -47.86258,10.23463 -6.39336,2.48222 -18.82165,9.15732 -21.40815,11.49807 -0.96213,0.87072 -2.07779,1.58312 -2.47923,1.58312 -0.89454,0 -8.98282,6.20795 -9.44595,7.25 -0.18334,0.4125 -0.75187,0.75 -1.26342,0.75 -1.34188,0 -12.9686,11.94231 -19.26638,19.78933 -5.12101,6.38077 -19.63687,29.53122 -19.63687,31.31762 0,0.46363 -1.35,3.7905 -3,7.39305 -1.65,3.60255 -3,7.21382 -3,8.02504 0,0.81123 -0.525,1.47496 -1.16667,1.47496 -0.64166,0 -0.90098,0.26568 -0.57625,0.59041 0.32472,0.32472 -0.0247,2.33379 -0.77649,4.46459 -1.99997,5.66853 -7.12392,27.34126 -8.38004,35.445 -2.87573,18.55248 -4.39127,58.58426 -2.2676,59.89676 0.45812,0.28313 2.40302,-0.5521 4.32199,-1.85608 10.50761,-7.1401 23.86671,-13.60684 36.84506,-17.8356 7.3449,-2.3932 10.36054,-3.18046 22.5,-5.87385 8.18755,-1.81658 42.89858,-1.80397 51,0.0185 19.69064,4.42963 24.65994,5.82093 31.5,8.81936 19.79777,8.67862 34.73009,18.34461 47.87519,30.99057 5.29364,5.09264 9.95374,9.27756 10.35576,9.29983 0.40202,0.0223 1.00674,-1.19702 1.34382,-2.70952 z m 83.52229,-239.7 c 0.49662,-0.5225 0.90294,-1.74796 0.90294,-2.72325 0,-0.97529 0.85012,-3.69779 1.88916,-6.05 1.03904,-2.35221 2.79015,-6.97675 3.89135,-10.27675 2.32944,-6.98067 4.18054,-12.1787 5.34175,-15 0.45274,-1.1 0.94795,-3.332668 1.10045,-4.961488 0.3045,-3.25207 1.36602,-2.79241 -12.72271,-5.50919 -10.70782,-2.06482 -17.66638,-2.92556 -37.5,-4.63859 -24.38361,-2.10601 -46.13641,-1.01468 -74.5,3.73763 -16.67992,2.79471 -48.40309,11.301878 -47.07966,12.625308 0.25944,0.25944 2.8585,-0.11241 5.77568,-0.82632 7.03036,-1.72053 42.84526,-1.76379 52.30398,-0.0632 15.81973,2.84428 19.50022,3.6881 32,7.33657 7.42143,2.16619 16.03919,5.1746 21,7.33099 1.65,0.71723 5.025,2.10079 7.5,3.07457 5.54171,2.18037 24.39024,11.85022 32.5,16.67346 5.07834,3.02032 6.05331,3.31131 6.34706,1.89435 0.19089,-0.92077 0.75339,-2.10162 1.25,-2.62412 z m 646.64533,559.68717 c -3.1032,-1.92387 -4.178,-4.34122 -3.8848,-8.73717 0.2593,-3.88817 25.0485,-77.14751 28.7619,-85 1.8049,-3.81662 5.6668,-8.95127 10.6126,-14.1102 9.3062,-9.70723 19.4288,-15.47958 30.3712,-17.31887 4.9408,-0.83049 29.3011,-1.07066 85.8967,-0.84686 73.0009,0.28868 79.3519,0.44803 83.6334,2.09844 10.7543,4.14544 17.3147,13.49396 17.3178,24.67749 0,8.36304 -1.7535,14.13574 -5.6486,18.57204 -6.2957,7.17039 -16.5577,9.65292 -21.8026,5.27436 -2.3118,-1.92991 -2.4848,-2.67064 -2.2977,-9.83721 0.1862,-7.13212 4e-4,-7.9399 -2.3302,-10.12967 l -2.5326,-2.37952 -76.6697,-0.28843 c -55.2826,-0.20797 -77.8315,0.0308 -80.8343,0.85602 -5.7046,1.56769 -8.8837,5.25366 -11.7177,13.58614 l -2.4035,7.06645 43.1429,0.59487 c 28.6916,0.39561 46.9949,1.08718 54.6428,2.06464 43.3702,5.543 66.8948,20.19695 78.9639,49.18819 3.9596,9.51142 3.5965,12.78402 -2.105,18.96932 -6.9752,7.5672 -16.7704,9.47301 -21.5737,4.19749 -1.1191,-1.22908 -4.1335,-5.90912 -6.6987,-10.40009 -5.9845,-10.47737 -15.3484,-19.43921 -26.1149,-24.99381 -17.5592,-9.05898 -26.8269,-10.26818 -84.4716,-11.02132 l -45.5,-0.59447 -6.3648,19.26171 c -5.3015,16.04372 -6.9722,19.93535 -10,23.2938 -6.3197,7.00967 -14.7312,9.46665 -20.3928,5.95666 z m 293.5317,0.7306 c -11.5572,-2.339 -21.0904,-12.51533 -24.3265,-25.96777 -1.8714,-7.77894 -1.6581,-21.1502 0.4785,-30 3.8249,-15.84318 15.5534,-35.20337 28.8765,-47.66646 7.0807,-6.62365 18.168,-14.32712 24.9175,-17.31277 12.4539,-5.50892 10.9752,-5.40756 84.7799,-5.81179 71.7253,-0.39285 78.2884,-0.0945 86.2222,3.91992 12.2408,6.19369 18.8785,19.24558 18.912,37.18774 0.022,11.4891 -2.1261,20.48569 -7.6994,32.25292 -10.8068,22.81693 -31.1219,42.38278 -53.1882,51.22653 l -6.7466,2.70391 -74,0.16152 c -40.7,0.0888 -75.9017,-0.22335 -78.2259,-0.69375 z m 152.8394,-27.98285 c 13.5069,-2.54537 25.9472,-12.84301 32.5996,-26.98492 9.7393,-20.70434 7.9934,-34.30281 -5.2642,-41 l -4.9489,-2.5 h -66 c -62.0686,0 -66.3276,0.11238 -71.5,1.88668 -13.2015,4.52856 -22.8573,13.21299 -28.9312,26.02085 -10.3267,21.77519 -7.3646,38.13461 7.635,42.16784 6.0818,1.63531 127.9634,2.00124 136.4097,0.40955 z m 113.8865,28.07561 c -24.8695,-5.04124 -32.4203,-40.4133 -15.7923,-73.97976 9.8311,-19.84587 29.1234,-39.14683 47.0596,-47.08088 12.822,-5.67178 9.4521,-5.49989 107.8288,-5.49989 99.2591,0 92.7814,-0.39924 95.4221,5.88121 2.3308,5.54318 -0.5378,12.08068 -7.9248,18.06091 l -3.7773,3.05788 -89.658,0.52524 c -88.2912,0.51722 -89.7436,0.55757 -95.2643,2.64664 -12.7517,4.82535 -21.9522,13.35215 -27.8688,25.82812 -5.8461,12.32714 -7.6582,24.65538 -4.674,31.79774 2.058,4.92539 7.7273,9.33886 13.6194,10.60249 3.4999,0.75059 31.9729,1.09977 89.6777,1.09977 93.5149,0 90.0284,-0.23528 92.2814,6.22748 2.2816,6.54502 -3.2567,16.19859 -11.4209,19.90754 -3.7883,1.72097 -9.0098,1.81594 -95.0086,1.72802 -50.05,-0.0512 -92.575,-0.4123 -94.5,-0.80251 z m 233.7424,-0.82336 c -3.1096,-1.92785 -4.165,-4.32078 -3.8904,-8.8207 0.2172,-3.55792 33.0223,-100.29034 35.9713,-106.06858 3.4076,-6.67665 9.588,-10.51456 16.9321,-10.51456 6.0584,0 9.7714,3.45891 9.5777,8.92232 -0.073,2.05939 -2.8778,11.79934 -6.2329,21.64434 -3.3551,9.84499 -6.1002,18.09144 -6.1002,18.32544 0,0.234 19.2375,0.21945 42.75,-0.0323 44.0271,-0.47145 44.8519,-0.53914 61.9921,-5.08738 18.9619,-5.03164 47.0901,-17.43752 75.5103,-33.30355 16.291,-9.09475 19.3616,-10.46884 23.3939,-10.46884 3.6684,0 5.188,0.54651 7.2476,2.60654 3.419,3.41962 3.4666,9.9508 0.1083,14.85199 -4.9438,7.21494 -42.8307,29.15838 -71.5022,41.41284 -4.4,1.8806 -8.3336,3.74749 -8.7414,4.14865 -0.4077,0.40116 4.2274,4.02406 10.3004,8.0509 18.8203,12.47936 38.8521,31.9767 38.9162,37.87787 0.067,6.16417 -7.1773,14.80936 -14.4097,17.19625 -6.5591,2.16469 -9.5158,0.7886 -21.5987,-10.05225 -17.5142,-15.71386 -36.7376,-27.82637 -51.9668,-32.74377 -16.3854,-5.29075 -18.1149,-5.45883 -61.1312,-5.94122 l -40.6312,-0.45563 -5.7575,17.35725 c -3.1666,9.54649 -6.5538,18.93225 -7.5272,20.85725 -4.8252,9.54265 -16.2225,14.56951 -23.2105,10.23717 z m 274.7503,-0.58848 c -9.4713,-4.41058 -13.9407,-12.01445 -13.9002,-23.64869 0.018,-5.20487 1.155,-9.88726 5.7062,-23.5 3.126,-9.35 6.5437,-18.40107 7.5948,-20.11349 1.0652,-1.73545 4.0567,-4.16977 6.7588,-5.5 l 4.8477,-2.38651 h 105.3364 105.3365 l 2.4135,2.80576 c 5.6799,6.60287 0.4894,18.83981 -9.8179,23.14651 -3.2555,1.36024 -15.2518,1.54773 -99.0303,1.54773 h -95.326 l -2.758,8.46882 c -2.8725,8.82068 -2.6832,11.53862 0.8998,12.91353 0.8853,0.33971 43.9853,0.61835 95.7778,0.6192 87.6718,10e-4 94.4055,0.12218 97.6086,1.75 1.9819,1.00719 3.8085,2.88281 4.3086,4.42412 2.054,6.33075 -3.8556,16.37735 -11.7404,19.95935 -3.7889,1.72127 -9.3512,1.82172 -101.5086,1.83325 l -97.5,0.0122 -5.0073,-2.33177 z m 349.527,1.06686 c -3.4554,-1.74834 -5.1814,-5.50841 -4.4597,-9.71555 0.3302,-1.925 7.0893,-22.57353 15.0202,-45.88563 7.9309,-23.3121 14.4198,-42.5496 14.4198,-42.75 0,-0.2004 -20.4499,-0.36437 -45.4442,-0.36437 h -45.4443 l -2.6921,-2.31567 c -3.364,-2.8936 -3.6211,-8.40922 -0.6622,-14.20687 2.3088,-4.52372 4.2545,-6.44087 9.2428,-9.10687 3.3555,-1.79339 7.8376,-1.87059 108.5963,-1.87059 115.1908,0 107.2709,-0.42374 109.9219,5.88121 2.4029,5.71483 -0.6721,12.40824 -8.4388,18.36879 l -4.2349,3.25 h -46.2632 -46.2633 l -14.3136,42.25 c -7.8725,23.2375 -15.1028,43.825 -16.0674,45.75 -4.587,9.15395 -15.7177,14.35838 -22.9173,10.71555 z m 289.7227,-0.47838 c -3.1096,-1.92785 -4.165,-4.32078 -3.8904,-8.8207 0.2172,-3.55792 33.0223,-100.29034 35.9713,-106.06858 2.2436,-4.39588 4.2173,-6.32672 9.1767,-8.9773 3.3321,-1.78087 7.7689,-1.88415 92.5,-2.15327 53.2294,-0.16907 91.4876,0.10195 95.1894,0.67431 10.4492,1.61564 17.1528,6.0794 21.3452,14.2133 9.2058,17.86078 -7.0533,47.91312 -31.5906,58.39014 -10.7627,4.59547 -8.3169,4.48269 -97.4637,4.49411 l -84.5197,0.0108 -6.3451,19.12421 c -5.2698,15.88325 -6.9612,19.80753 -9.9803,23.1563 -6.3197,7.00967 -14.7312,9.46665 -20.3928,5.95666 z m 216.3359,-78.51097 c 4.115,-2.77305 7.9217,-8.21205 7.9217,-11.31832 0,-1.26299 -1.0859,-3.55895 -2.4131,-5.10212 l -2.4131,-2.80576 -82.8573,-0.2722 -82.8573,-0.2722 -3.6414,11.0222 -3.6415,11.0222 h 83.264 83.2639 z m 41.6641,78.51097 c -3.1484,-1.95192 -4.1655,-4.32119 -3.8763,-9.02942 0.2647,-4.30913 10.2167,-32.75191 13.6974,-39.147 3.5654,-6.5509 16.5403,-19.0768 23.3054,-22.49904 10.8209,-5.47388 11.7448,-5.5255 99.2332,-5.54435 l 80.6021,-0.0174 3.3741,-2.2738 c 4.115,-2.77305 7.9217,-8.21205 7.9217,-11.31832 0,-1.26299 -1.0859,-3.55895 -2.4132,-5.10212 l -2.4131,-2.80576 -92.4315,-0.27013 -92.4314,-0.27014 -2.3869,-2.54071 c -2.9691,-3.16052 -3.0301,-8.33107 -0.1643,-13.94614 2.3064,-4.5192 4.2531,-6.43682 9.2404,-9.10229 3.3321,-1.78087 7.7689,-1.88415 92.5,-2.15327 53.2294,-0.16907 91.4876,0.10195 95.1894,0.67431 7.5609,1.16906 12.3025,3.32954 16.3853,7.46589 9.2794,9.40109 10.121,21.86993 2.5377,37.59774 -8.0972,16.79375 -30.1038,31.92911 -46.6124,32.05831 l -4.5,0.0352 5.5,4.65303 c 8.092,6.84591 21.3038,20.39666 22.8813,23.46838 4.5215,8.8045 -9.3782,23.45998 -20.3059,21.40994 -2.5608,-0.48042 -6.4432,-3.32341 -14.3481,-10.50672 -13.129,-11.93065 -32.9169,-25.53772 -43.5519,-29.94832 -18.2543,-7.57055 -30.0473,-9.05244 -72.1754,-9.06945 -39.4438,-0.0159 -37.6956,-0.93829 -46.1261,24.33523 -3.6274,10.87434 -5.4198,14.76287 -8.2538,17.9063 -6.3049,6.99337 -14.7214,9.44673 -20.3777,5.94 z m 293.5317,0.7306 c -11.5572,-2.339 -21.0904,-12.51533 -24.3265,-25.96777 -1.8714,-7.77894 -1.6581,-21.1502 0.4785,-30 3.8249,-15.84318 15.5534,-35.20337 28.8765,-47.66646 7.0807,-6.62365 18.168,-14.32712 24.9175,-17.31277 12.4539,-5.50892 10.9752,-5.40756 84.7799,-5.81179 71.7253,-0.39285 78.2884,-0.0945 86.2222,3.91992 12.2408,6.19369 18.8785,19.24558 18.912,37.18774 0.022,11.4891 -2.1261,20.48569 -7.6994,32.25292 -10.8068,22.81693 -31.1219,42.38278 -53.1882,51.22653 l -6.7466,2.70391 -74,0.16152 c -40.7,0.0888 -75.9017,-0.22335 -78.2259,-0.69375 z m 152.8394,-27.98285 c 13.5069,-2.54537 25.9472,-12.84301 32.5996,-26.98492 9.7393,-20.70434 7.9934,-34.30281 -5.2642,-41 l -4.9489,-2.5 h -66 c -62.0686,0 -66.3276,0.11238 -71.5,1.88668 -13.2015,4.52856 -22.8573,13.21299 -28.9312,26.02085 -10.3267,21.77519 -7.3646,38.13461 7.635,42.16784 6.0818,1.63531 127.9634,2.00124 136.4097,0.40955 z m 109.9679,27.44793 c -6.7889,-1.85196 -10.8783,-4.35878 -15.5547,-9.53502 -4.9738,-5.50532 -7.5892,-12.01016 -8.2452,-20.50649 -1.3788,-17.85872 7.1169,-30.67367 20.4388,-30.83006 4.1546,-0.0488 5.6857,0.40482 7.5,2.22195 2.0654,2.06861 2.2533,3.07203 1.9988,10.67507 -0.2292,6.84898 0.072,8.97235 1.6393,11.54928 2.6663,4.38441 8.1604,7.85811 14.2573,9.01437 7.5069,1.42365 127.3068,1.29212 134.0851,-0.14721 5.5447,-1.1774 14.8811,-5.56476 18.2992,-8.59923 3.9218,-3.48158 11.2865,-12.8453 13.4054,-17.04409 1.1848,-2.34772 6.3477,-16.52592 11.4731,-31.50712 5.1254,-14.9812 10.0193,-28.58534 10.8752,-30.23142 3.288,-6.32329 10.4427,-10.65955 17.5877,-10.65955 3.7512,0 5.0448,0.4956 6.8885,2.6391 4.0141,4.66662 3.8154,5.74264 -6.9159,37.44281 -12.172,35.95627 -16.186,43.78493 -30.0748,58.65691 -11.3187,12.11994 -23.2992,20.35804 -37.3048,25.6517 -5.9342,2.24293 -5.9365,2.243 -80.4344,2.46508 -63.1187,0.18816 -75.3278,-0.004 -79.9186,-1.25608 z m 252.4113,-0.78416 c -9.4713,-4.41058 -13.9407,-12.01445 -13.9002,-23.64869 0.018,-5.20487 1.155,-9.88726 5.7062,-23.5 3.126,-9.35 6.5437,-18.40107 7.5948,-20.11349 1.0652,-1.73545 4.0567,-4.16977 6.7588,-5.5 l 4.8477,-2.38651 h 105.3364 105.3365 l 2.4135,2.80576 c 5.6799,6.60287 0.4894,18.83981 -9.8179,23.14651 -3.2555,1.36024 -15.2518,1.54773 -99.0303,1.54773 h -95.326 l -2.758,8.46882 c -2.8725,8.82068 -2.6832,11.53862 0.8998,12.91353 0.8853,0.33971 43.9853,0.61835 95.7778,0.6192 87.6718,10e-4 94.4055,0.12218 97.6086,1.75 1.9819,1.00719 3.8085,2.88281 4.3086,4.42412 2.054,6.33075 -3.8556,16.37735 -11.7404,19.95935 -3.7889,1.72127 -9.3512,1.82172 -101.5086,1.83325 l -97.5,0.0122 -5.0073,-2.33177 z m 282.5073,1.41184 c -24.8695,-5.04124 -32.4203,-40.4133 -15.7923,-73.97976 9.8311,-19.84587 29.1234,-39.14683 47.0596,-47.08088 12.822,-5.67178 9.4521,-5.49989 107.8288,-5.49989 99.2591,0 92.7814,-0.39924 95.4221,5.88121 2.3308,5.54318 -0.5378,12.08068 -7.9248,18.06091 l -3.7773,3.05788 -89.658,0.52524 c -88.2912,0.51722 -89.7436,0.55757 -95.2643,2.64664 -12.7517,4.82535 -21.9522,13.35215 -27.8688,25.82812 -5.8461,12.32714 -7.6582,24.65538 -4.674,31.79774 2.058,4.92539 7.7273,9.33886 13.6194,10.60249 3.4999,0.75059 31.9729,1.09977 89.6777,1.09977 93.5149,0 90.0284,-0.23528 92.2814,6.22748 2.2816,6.54502 -3.2567,16.19859 -11.4209,19.90754 -3.7883,1.72097 -9.0098,1.81594 -95.0086,1.72802 -50.05,-0.0512 -92.575,-0.4123 -94.5,-0.80251 z m 335.0197,-0.34498 c -3.4554,-1.74834 -5.1814,-5.50841 -4.4597,-9.71555 0.3302,-1.925 7.0893,-22.57353 15.0202,-45.88563 7.9309,-23.3121 14.4198,-42.5496 14.4198,-42.75 0,-0.2004 -20.4499,-0.36437 -45.4442,-0.36437 h -45.4443 l -2.6921,-2.31567 c -3.364,-2.8936 -3.6211,-8.40922 -0.6622,-14.20687 2.3088,-4.52372 4.2545,-6.44087 9.2428,-9.10687 3.3555,-1.79339 7.8376,-1.87059 108.5963,-1.87059 115.1908,0 107.2709,-0.42374 109.9219,5.88121 2.4029,5.71483 -0.6721,12.40824 -8.4388,18.36879 l -4.2349,3.25 h -46.2632 -46.2633 l -14.3136,42.25 c -7.8725,23.2375 -15.1028,43.825 -16.0674,45.75 -4.587,9.15395 -15.7177,14.35838 -22.9173,10.71555 z M 2193.0185,594.47755 c -2.9888,-3.18146 -3.0564,-8.3366 -0.1832,-13.96628 2.3064,-4.5192 4.2531,-6.43682 9.2404,-9.10229 3.3573,-1.79435 7.9079,-1.87059 111.645,-1.87059 106.7384,0 108.1739,0.026 110.3648,2 5.1417,4.63275 4.4782,11.74031 -1.7385,18.62141 -6.7083,7.42539 2.6756,6.87859 -118.0473,6.87859 h -108.8754 z m 1706,0 c -2.9888,-3.18146 -3.0564,-8.3366 -0.1832,-13.96628 2.3064,-4.5192 4.2531,-6.43682 9.2404,-9.10229 3.3573,-1.79435 7.9079,-1.87059 111.645,-1.87059 106.7384,0 108.1739,0.026 110.3648,2 5.1417,4.63275 4.4782,11.74031 -1.7385,18.62141 -6.7083,7.42539 2.6756,6.87859 -118.0473,6.87859 H 3901.4243 Z M 946.09542,446.75394 c -3.45972,-1.75053 -5.1825,-5.50833 -4.45414,-9.71555 1.19047,-6.87649 18.64224,-56.6494 22.6155,-64.5 4.12631,-8.15301 11.35851,-19.04307 14.22856,-21.425 0.87471,-0.72594 1.59037,-1.71479 1.59037,-2.19744 0,-0.49179 -22.12317,-0.87756 -50.32569,-0.87756 h -50.32568 l -2.40579,-2.56084 c -2.98882,-3.18146 -3.05647,-8.3366 -0.18328,-13.96628 2.30644,-4.5192 4.25317,-6.43682 9.24044,-9.10229 3.35554,-1.79339 7.83763,-1.87059 108.59631,-1.87059 115.19078,0 107.27088,-0.42374 109.92188,5.88121 2.3304,5.54239 -0.537,12.07876 -7.9232,18.06091 l -3.7755,3.05788 -34.6598,0.53619 c -32.119,0.49689 -35.0782,0.69186 -40.3684,2.65982 -7.2748,2.70615 -16.2908,9.6349 -21.47853,16.50597 -5.35246,7.08928 -8.54244,14.63934 -18.16917,43.00289 -4.42506,13.03768 -8.70244,24.96268 -9.5053,26.5 -4.45657,8.5335 -15.70171,13.51044 -22.61858,10.01068 z m 193.25438,0.25222 c -11.5572,-2.339 -21.0904,-12.51533 -24.3265,-25.96777 -1.8714,-7.77894 -1.6581,-21.1502 0.4785,-30 3.8249,-15.84318 15.5534,-35.20337 28.8765,-47.66646 7.0807,-6.62365 18.168,-14.32712 24.9175,-17.31277 12.4539,-5.50892 10.9752,-5.40756 84.7799,-5.81179 71.7253,-0.39285 78.2884,-0.0945 86.2222,3.91992 12.2408,6.19369 18.8785,19.24558 18.912,37.18774 0.022,11.4891 -2.1261,20.48569 -7.6994,32.25292 -10.8068,22.81693 -31.1219,42.38278 -53.1882,51.22653 l -6.7466,2.70391 -74,0.16152 c -40.7,0.0888 -75.9017,-0.22335 -78.2259,-0.69375 z m 152.8394,-27.98285 c 13.5069,-2.54537 25.9472,-12.84301 32.5996,-26.98492 9.7393,-20.70434 7.9934,-34.30281 -5.2642,-41 l -4.9489,-2.5 h -66 c -62.0686,0 -66.3276,0.11238 -71.5,1.88668 -13.2015,4.52856 -22.8573,13.21299 -28.9312,26.02085 -10.3267,21.77519 -7.3646,38.13461 7.635,42.16784 6.0818,1.63531 127.9634,2.00124 136.4097,0.40955 z m 79.6289,27.25225 c -3.1096,-1.92785 -4.165,-4.32078 -3.8904,-8.8207 0.2172,-3.55792 33.0223,-100.29034 35.9713,-106.06858 3.4076,-6.67665 9.588,-10.51456 16.9321,-10.51456 6.0584,0 9.7714,3.45891 9.5777,8.92232 -0.073,2.05939 -2.8778,11.79934 -6.2329,21.64434 -3.3551,9.84499 -6.1002,18.09144 -6.1002,18.32544 0,0.234 19.2375,0.21945 42.75,-0.0323 44.0271,-0.47145 44.8519,-0.53914 61.9921,-5.08738 18.9619,-5.03164 47.0901,-17.43752 75.5103,-33.30355 16.291,-9.09475 19.3616,-10.46884 23.3939,-10.46884 3.6684,0 5.188,0.54651 7.2476,2.60654 3.419,3.41962 3.4666,9.9508 0.1083,14.85199 -4.9438,7.21494 -42.8307,29.15838 -71.5022,41.41284 -4.4,1.8806 -8.3336,3.74749 -8.7414,4.14865 -0.4077,0.40116 4.2274,4.02406 10.3004,8.0509 18.8203,12.47936 38.8521,31.9767 38.9162,37.87787 0.067,6.16417 -7.1773,14.80936 -14.4097,17.19625 -6.5591,2.16469 -9.5158,0.7886 -21.5987,-10.05225 -17.5142,-15.71386 -36.7376,-27.82637 -51.9668,-32.74377 -16.3854,-5.29075 -18.1149,-5.45883 -61.1312,-5.94122 l -40.6312,-0.45563 -5.7575,17.35725 c -3.1666,9.54649 -6.5538,18.93225 -7.5272,20.85725 -4.8252,9.54265 -16.2225,14.56951 -23.2105,10.23717 z m 258,0 c -4.1758,-2.58886 -5.177,-8.13254 -2.6146,-14.47723 0.8821,-2.1842 77.1229,-73.65537 106.8334,-100.14988 20.9067,-18.64365 47.1002,-22.27744 58.7455,-8.14968 4.3904,5.32626 43.6504,101.63896 43.5075,106.73241 -0.1336,4.75891 -2.2285,8.73455 -6.6465,12.61366 -6.8558,6.0194 -16.8502,6.73337 -20.3253,1.45197 -0.9583,-1.45647 -10.1122,-23.09166 -20.342,-48.07821 -10.2298,-24.98655 -19.8115,-46.94887 -21.2926,-48.80515 -1.9911,-2.49526 -3.4811,-3.37506 -5.7162,-3.37506 -5.8918,0 -4.0638,-1.53103 -67.3069,56.37359 -29.3096,26.83562 -49.5041,44.59376 -52.0016,45.72804 -5.0819,2.30805 -9.2652,2.35221 -12.8407,0.13554 z m 239,0 c -3.1096,-1.92785 -4.165,-4.32078 -3.8904,-8.8207 0.2172,-3.55792 33.0223,-100.29034 35.9713,-106.06858 3.4076,-6.67665 9.588,-10.51456 16.9321,-10.51456 5.9805,0 9.7032,3.42537 9.6905,8.91667 0,2.20037 -7.2055,25.01732 -17.4247,55.21562 -15.4567,45.67577 -17.8157,51.90894 -20.9686,55.4063 -6.2387,6.92026 -14.6776,9.35726 -20.3102,5.86525 z m 198.2576,0.48218 c -7.8975,-4.03683 -5.3992,-15.97758 4.8504,-23.18219 l 4.3207,-3.03716 94.1645,-0.5 c 92.4456,-0.49087 94.2276,-0.53715 97.629,-2.53538 6.7219,-3.94895 9.3737,-12.57034 5.1622,-16.78273 l -2.1815,-2.18189 -87.7226,-0.5 -87.7227,-0.5 -4.0682,-2.17758 c -5.6209,-3.00866 -11.0992,-9.37652 -12.4881,-14.51575 -0.6437,-2.38215 -0.9659,-7.75628 -0.7209,-12.0262 0.6666,-11.61748 5.1162,-19.94165 16.497,-30.86216 9.3778,-8.99858 17.2228,-13.7888 26.2802,-16.04703 4.4632,-1.11279 23.1524,-1.37128 99.1449,-1.37128 92.2384,0 93.6783,0.03 95.8648,2 5.1419,4.63266 4.4783,11.74027 -1.7384,18.62141 -6.6728,7.386 0.7139,6.87599 -99.9716,6.90245 -50.8908,0.0134 -92.5238,0.42372 -94.7223,0.93361 -7.2661,1.68521 -12.7004,7.39877 -12.8744,13.53588 -0.079,2.80584 0.4809,4.23715 2.206,5.63403 2.2185,1.79644 5.6789,1.87262 85.0653,1.87262 50.323,0 84.7946,0.38723 87.963,0.98812 9.2987,1.76346 15.8838,6.23807 19.8849,13.51188 2.6275,4.77675 2.2883,19.39194 -0.6283,27.07397 -5.0879,13.40097 -18.8672,27.00216 -33.3576,32.92659 l -7.3363,2.99944 -95.5,0.24861 c -75.9318,0.19768 -96.0123,-0.0132 -98,-1.02926 z m 361.0197,-0.004 c -3.4554,-1.74834 -5.1814,-5.50841 -4.4597,-9.71555 0.3302,-1.925 7.0893,-22.57353 15.0202,-45.88563 7.9309,-23.3121 14.4198,-42.5496 14.4198,-42.75 0,-0.2002 -20.4499,-0.36417 -45.4442,-0.36417 h -45.4443 l -2.6921,-2.31567 c -3.364,-2.8936 -3.6211,-8.40922 -0.6622,-14.20687 2.3088,-4.52372 4.2545,-6.44087 9.2428,-9.10687 3.3555,-1.79339 7.8376,-1.87059 108.5963,-1.87059 115.1908,0 107.2709,-0.42374 109.9219,5.88121 2.4029,5.71483 -0.6721,12.40824 -8.4388,18.36879 l -4.2349,3.25 h -46.2632 -46.2633 l -14.3136,42.25 c -7.8725,23.2375 -15.1028,43.825 -16.0674,45.75 -4.587,9.15395 -15.7177,14.35838 -22.9173,10.71555 z m 193.2544,0.25222 c -11.553,-2.33814 -21.0737,-12.49758 -24.3351,-25.96777 -1.9763,-8.16209 -1.5806,-22.06945 0.8962,-31.5 2.4344,-9.26889 17.4462,-53.22292 19.5587,-57.26706 4.8241,-9.2353 17.6056,-14.16759 23.8945,-9.22075 4.8547,3.81876 4.5717,5.60598 -5.8836,37.15793 -8.2165,24.79578 -9.79,30.57818 -10.1781,37.40481 -0.618,10.86891 1.5754,15.18074 10.2733,20.19544 2.7435,1.58175 8.4975,1.75455 67.2998,2.02111 41.9028,0.18994 66.2853,-0.0744 70,-0.75895 8.0453,-1.48257 15.331,-5.33333 22.3026,-11.78779 7.8983,-7.31249 12.2806,-16.4839 22.8134,-47.74474 8.2682,-24.53962 9.8009,-28.22212 13.4784,-32.38192 2.8764,-3.25358 9.3124,-6.0696 13.9327,-6.09612 4.8705,-0.0279 9.6731,4.3249 9.6731,8.76716 0,4.19284 -17.199,54.90985 -21.9482,64.72173 -10.7227,22.15321 -31.1511,41.60672 -52.8052,50.28524 l -6.7466,2.70411 -74,0.16152 c -40.7,0.0888 -75.9017,-0.22335 -78.2259,-0.69375 z m 232.4683,-0.71098 c -5.9272,-3.71681 -5.5394,-6.70485 4.7584,-36.67153 10.9677,-31.91603 11.5382,-33.02266 18.9992,-36.85002 4.919,-2.52337 11.1705,-2.65245 14.7538,-0.30463 4.9298,3.23013 4.6369,6.41827 -2.5742,28.0215 l -6.5251,19.54809 h 76.7863 c 47.0175,0 78.8745,-0.38828 82.1727,-1.00154 21.2192,-3.94541 38.8865,-26.92885 38.8865,-50.58752 0,-8.7914 -3.5739,-14.40245 -11.5,-18.05514 -3.7749,-1.73964 -8.9869,-1.86032 -92.618,-2.14463 l -88.618,-0.30126 -2.3635,-2.5158 c -2.9448,-3.13464 -2.9974,-8.32439 -0.1409,-13.92123 2.3064,-4.5192 4.2531,-6.43682 9.2404,-9.10229 3.3296,-1.77952 7.7114,-1.88434 90,-2.15311 56.3105,-0.18391 88.8515,0.0803 93.2377,0.75716 15.7345,2.42795 24.0885,9.5807 29.3089,25.09449 2.6691,7.93182 2.4703,23.00922 -0.4408,33.43087 -7.8322,28.04005 -31.4116,54.72432 -57.6181,65.20533 l -6.9877,2.79467 -93,0.24301 c -86.6653,0.22645 -93.1878,0.12522 -95.7576,-1.48622 z m 284.7503,-0.6081 c -9.4713,-4.41058 -13.9407,-12.01445 -13.9002,-23.64869 0.018,-5.20487 1.155,-9.88726 5.7062,-23.5 3.126,-9.35 6.5437,-18.40107 7.5948,-20.11349 1.0652,-1.73545 4.0567,-4.16977 6.7588,-5.5 l 4.8477,-2.38631 h 105.3364 105.3365 l 2.4135,2.80576 c 5.6799,6.60287 0.4894,18.83981 -9.8179,23.14651 -3.2555,1.36024 -15.2518,1.54773 -99.0303,1.54773 h -95.326 l -2.758,8.46882 c -2.8725,8.82068 -2.6832,11.53862 0.8998,12.91353 0.8853,0.33971 43.9853,0.61835 95.7778,0.6192 87.6718,10e-4 94.4055,0.12218 97.6086,1.75 1.9819,1.00719 3.8085,2.88281 4.3086,4.42412 2.054,6.33075 -3.8556,16.37735 -11.7404,19.95935 -3.7889,1.72127 -9.3512,1.82172 -101.5086,1.83325 l -97.5,0.0122 -5.0073,-2.33177 z m 248.2497,0.58848 c -3.0994,-1.92156 -4.1743,-4.33338 -3.8938,-8.73717 0.3128,-4.9128 29.129,-88.48063 32.8037,-95.13187 9.7081,-17.57191 30.8012,-26.46488 45.0954,-19.01241 1.7862,0.93127 28.3214,21.0273 58.9671,44.65785 30.6457,23.63055 57.2171,43.67528 59.0474,44.54384 4.7246,2.24198 8.0835,0.83837 11.6094,-4.85131 1.5794,-2.54864 7.3307,-17.81263 12.7807,-33.91999 12.6277,-37.32087 14.5086,-42.22961 17.5799,-45.87974 3.548,-4.21647 9.6549,-7.07304 15.1213,-7.07304 5.8333,0 9.1465,3.2867 9.1465,9.0735 0,4.23523 -28.0477,87.41179 -32.2509,95.64156 -1.436,2.81147 -5.6412,7.93759 -9.4905,11.56889 -5.8027,5.47395 -8.0699,6.89278 -14.1254,8.83989 -9.2013,2.95861 -17.4901,2.38721 -23.5942,-1.62647 -2.2214,-1.46072 -27.4661,-20.74482 -56.0993,-42.85354 -28.6331,-22.10871 -53.8405,-41.37578 -56.0163,-42.81569 -8.5532,-5.66022 -13.249,-4.09065 -17.8539,5.96759 -1.4056,3.07035 -7.6038,20.48873 -13.7737,38.70752 -9.6636,28.53482 -11.7085,33.66904 -14.7569,37.05055 -6.2253,6.90539 -14.6688,9.33904 -20.2965,5.85004 z m 358.2773,0.47838 c -3.4554,-1.74834 -5.1814,-5.50841 -4.4597,-9.71555 0.3302,-1.925 7.0893,-22.57353 15.0202,-45.88563 7.9309,-23.3121 14.4198,-42.5496 14.4198,-42.75 0,-0.2002 -20.4499,-0.36417 -45.4442,-0.36417 h -45.4443 l -2.6921,-2.31567 c -3.364,-2.8936 -3.6211,-8.40922 -0.6622,-14.20687 2.3088,-4.52372 4.2545,-6.44087 9.2428,-9.10687 3.3555,-1.79339 7.8376,-1.87059 108.5963,-1.87059 115.1908,0 107.2709,-0.42374 109.9219,5.88121 2.4029,5.71483 -0.6721,12.40824 -8.4388,18.36879 l -4.2349,3.25 h -46.2632 -46.2633 l -14.3136,42.25 c -7.8725,23.2375 -15.1028,43.825 -16.0674,45.75 -4.587,9.15395 -15.7177,14.35838 -22.9173,10.71555 z M 3154.0185,345.47755 c -2.9888,-3.18146 -3.0564,-8.3366 -0.1832,-13.96628 2.3064,-4.5192 4.2531,-6.43682 9.2404,-9.10229 3.3573,-1.79435 7.9079,-1.87059 111.645,-1.87059 106.7384,0 108.1739,0.026 110.3648,2 5.1417,4.63275 4.4782,11.74031 -1.7385,18.62141 -6.7083,7.42539 2.6756,6.87859 -118.0473,6.87859 h -108.8754 z"/>
</svg>
