<svg viewBox="0 0 4609.2822 775.81415" xmlns="http://www.w3.org/2000/svg">
    <path fill="#FFF" d="m 216.25,784.33772 c -1.88904,-0.76225 -1.50537,-7.80059 0.68678,-12.59862 1.06523,-2.3315 2.61072,-6.5839 3.43442,-9.44977 0.8237,-2.86588 2.13426,-6.69088 2.91234,-8.5 0.77809,-1.80913 2.5181,-6.64853 3.8667,-10.75422 l 2.452,-7.4649 -9.05112,-4.61208 C 206.75943,723.93044 198.07701,719.06102 191.80487,714.83618 188.67255,712.72628 185.63505,711 185.05487,711 184.47469,711 184,710.58032 184,710.06739 c 0,-0.51294 -0.89734,-1.21742 -1.99408,-1.56551 -1.09674,-0.34809 -2.55924,-1.17559 -3.25,-1.83889 -0.69076,-0.6633 -4.26058,-3.33312 -7.93294,-5.93294 -3.67236,-2.59982 -7.27236,-5.30496 -8,-6.01141 -0.72764,-0.70646 -2.89798,-2.37331 -4.82298,-3.70411 -1.925,-1.33081 -4.1756,-3.116 -5.00133,-3.96709 C 152.17293,686.19635 148.57848,683.025 145.01099,680 136.69247,672.94642 122.05358,658.30753 115,649.98901 c -3.025,-3.56749 -6.18775,-7.16194 -7.02834,-7.98768 C 107.13108,641.1756 104.8927,638.475 102.9975,636 c -1.8952,-2.475 -3.704131,-4.725 -4.019841,-5 -0.31571,-0.275 -1.662527,-2.075 -2.992926,-4 -1.330399,-1.925 -2.996219,-4.09464 -3.70182,-4.82143 C 91.577311,621.45179 91,620.47143 91,620 91,619.52857 90.416104,618.54821 89.702452,617.82143 87.56539,615.64503 82,607.21415 82,606.15316 c 0,-0.54257 -0.348635,-1.13649 -0.774745,-1.31983 -0.791883,-0.3407 -9.568713,-14.91958 -12.24115,-20.33333 -0.814504,-1.65 -1.715717,-3.225 -2.002695,-3.5 -0.286978,-0.275 -1.926551,-3.425 -3.643495,-7 -10.101913,-21.03408 -17.499742,-39.94091 -22.302858,-57 -0.696855,-2.475 -1.621799,-5.625 -2.05543,-7 -0.433631,-1.375 -1.281442,-4.6375 -1.884024,-7.25 -4.122308,-17.87231 -4.707849,-21.03301 -8.290244,-44.75 -1.765789,-11.69028 -1.779934,-72.54764 -0.01941,-83.5 0.707274,-4.4 1.758114,-11.15 2.335201,-15 1.123056,-7.49241 2.40215,-14.40899 3.929793,-21.25 2.116754,-9.47913 3.178994,-13.87282 3.928681,-16.25 0.433631,-1.375 1.350884,-4.525 2.038339,-7 1.6019,-5.76722 4.868479,-15.91741 5.953753,-18.5 0.462249,-1.1 2.769236,-6.95 5.126637,-13 6.081242,-15.60681 24.759523,-52.40262 27.073058,-53.33333 C 79.627137,229.98333 80,229.40051 80,228.87151 80,227.93646 89.709265,213.00067 90.96761,212 c 0.345812,-0.275 1.709484,-2.075 3.030383,-4 1.320898,-1.925 4.364527,-5.975 6.763617,-9 2.3991,-3.025 5.07576,-6.4 5.94814,-7.5 10.95167,-13.80909 35.62306,-38.06809 50.31519,-49.47416 2.46128,-1.91079 4.70006,-3.73247 4.97506,-4.04818 0.275,-0.31571 2.075,-1.65566 4,-2.97766 1.925,-1.322 3.725,-2.69037 4,-3.04082 C 170.76969,130.97832 194.85719,115 195.56616,115 c 0.3438,0 1.81957,-0.83304 3.27947,-1.85119 C 206.77896,107.61601 240.30883,91 243.54028,91 c 0.73793,0 1.57457,-0.376815 1.85921,-0.837366 C 245.87245,89.397359 278.07793,78.660275 287.5,76.126611 338.29934,62.466302 405.08198,61.239506 455,73.049639 c 7.30551,1.728414 7.55354,1.724846 9.56445,-0.137605 C 465.6999,71.860415 467.1249,71 467.73112,71 c 0.60622,0 1.25221,-0.368713 1.43555,-0.819361 0.32062,-0.78813 2.92324,-2.651156 21.75063,-15.569728 4.72049,-3.239 8.8077,-6.164717 9.0827,-6.501595 0.275,-0.336877 1.7299,-1.246263 3.23312,-2.020856 1.50322,-0.774594 3.52822,-2.142533 4.5,-3.039865 C 510.62185,40.381176 518.77663,35 519.93018,35 520.51858,35 521,34.626041 521,34.16898 c 0,-0.457061 1.2375,-1.469561 2.75,-2.25 1.5125,-0.780439 3.8704,-2.43148 5.23978,-3.66898 1.36938,-1.2375 2.79974,-2.25 3.17857,-2.25 0.37884,0 1.28344,-0.591454 2.01022,-1.314342 0.72679,-0.722888 3.79643,-2.941791 6.82143,-4.930896 3.025,-1.989106 7.75,-5.206743 10.5,-7.150306 5.35902,-3.7874872 8.54796,-4.456524 10.43042,-2.188295 0.64642,0.778889 1.59088,5.166389 2.0988,9.75 0.50793,4.583612 1.39607,11.258839 1.97365,14.833839 1.02565,6.348313 2.14962,14.848871 3.9667,30 0.49472,4.125 1.39433,10.425 1.99915,14 0.60481,3.575 1.51744,10.1 2.02807,14.5 3.02118,26.0333 4.36417,32.57414 7.13466,34.74845 1.3027,1.02237 3.04373,2.39721 3.86895,3.0552 0.82522,0.65799 2.67458,1.95285 4.10969,2.87747 1.43511,0.92461 3.23493,2.27461 3.9996,3 0.76467,0.72538 3.03886,2.54957 5.05375,4.05375 2.01489,1.50418 4.26553,3.30418 5.00142,4 0.73588,0.69582 4.69846,4.19013 8.80573,7.76513 28.69972,24.98048 55.17631,57.96658 74.24595,92.5 3.01596,5.46164 11.53424,22.77535 14.14488,28.75 0.90122,2.0625 2.27546,5.2125 3.05386,7 7.753,17.80375 17.85738,53.90046 21.48425,76.75 6.63423,41.79614 5.75849,87.96864 -2.45618,129.5 -3.40495,17.2146 -11.92866,46.26694 -16.50007,56.2391 -1.06881,2.33151 -1.94328,4.62487 -1.94328,5.09636 0,0.4715 -0.62592,2.1639 -1.39094,3.7609 -0.76502,1.597 -2.16443,4.70364 -3.1098,6.90364 -3.47144,8.07849 -12.08675,25.17212 -15.74111,31.23193 -2.06698,3.42756 -3.75815,6.69006 -3.75815,7.25 0,0.55994 -0.45,1.01807 -1,1.01807 -0.55,0 -1,0.465 -1,1.03334 0,0.9872 -13.64118,21.92752 -14.96121,22.96666 -0.34933,0.275 -1.71679,2.075 -3.03879,4 -1.322,1.925 -2.65288,3.725 -2.95751,4 -0.30463,0.275 -1.782,2.14855 -3.28305,4.16344 -1.50105,2.01489 -3.29849,4.27574 -3.99431,5.0241 -0.69582,0.74835 -3.74013,4.26873 -6.76513,7.82305 -9.5371,11.20594 -29.45998,30.52916 -41.5,40.2509 -8.56481,6.91568 -13.7027,10.84172 -18,13.75442 -2.75,1.86395 -5.59464,3.97289 -6.32143,4.68654 C 576.45179,707.4161 575.47143,708 575,708 c -0.47143,0 -1.45179,0.5625 -2.17857,1.25 -2.02309,1.91373 -12.75348,8.43771 -25.82143,15.6992 -20.34988,11.30784 -48.60881,22.86685 -71,29.04177 -2.475,0.68254 -5.625,1.59063 -7,2.01797 -1.375,0.42735 -5.2,1.32332 -8.5,1.99106 -3.3,0.66774 -7.125,1.57984 -8.5,2.0269 -1.375,0.44706 -4.3,1.05404 -6.5,1.34885 -2.2,0.2948 -6.925,1.01353 -10.5,1.59717 -33.06959,5.39881 -80.34484,5.438 -113.5,0.0941 -13.46981,-2.17105 -28.04114,-5.26068 -38,-8.05732 -2.2,-0.6178 -5.575,-1.53416 -7.5,-2.03635 -1.925,-0.50218 -8.675,-2.77191 -15,-5.04384 -16.32063,-5.86233 -15.3903,-5.80695 -16.97331,-1.01039 -0.74074,2.24449 -1.67592,4.08088 -2.07817,4.08088 -0.40225,0 -1.44548,1.6875 -2.31829,3.75 -0.87281,2.0625 -3.60572,7.35 -6.07311,11.75 -2.4674,4.4 -5.65983,10.3625 -7.09427,13.25 -2.34936,4.72917 -2.92331,5.24217 -5.78547,5.17105 -1.74756,-0.0434 -3.73988,-0.30592 -4.42738,-0.58333 z M 399,727.96983 c 22.02867,-2.18512 29.22953,-3.29048 46.5,-7.13791 9.65427,-2.15073 25.52544,-6.52403 26.22873,-7.22731 0.23547,-0.23548 -6.46966,-0.43209 -14.9003,-0.43692 -15.54669,-0.009 -28.0536,-1.21924 -39.82843,-3.8543 -3.575,-0.80004 -8.34736,-1.84708 -10.60523,-2.32675 -4.02751,-0.85563 -16.51274,-4.8888 -27.39477,-8.84948 -12.9507,-4.7136 -28.65758,-12.42763 -44.81377,-22.00912 C 326.2411,671.41616 305.99307,657.52823 302,654.05183 c -1.925,-1.67593 -3.95,-3.04739 -4.5,-3.0477 -1.26726,-7e-4 -6.5,8.20724 -6.5,10.19574 0,0.81959 -0.9,2.30464 -2,3.30013 -1.1,0.99549 -2,2.30987 -2,2.92086 0,0.61098 -1.8,4.19114 -4,7.9559 -2.2,3.76476 -4,7.38527 -4,8.04557 0,0.6603 -0.80417,2.0729 -1.78704,3.13911 -0.98288,1.06621 -2.41983,3.51356 -3.19323,5.43856 -0.7734,1.925 -1.69861,3.725 -2.05603,4 -0.35741,0.275 -1.82456,2.85785 -3.26032,5.73968 -3.07551,6.17307 -3.697,5.53777 9.79662,10.01424 41.76043,13.8539 85.27622,19.7099 120.5,16.21591 z M 243.89445,694.75 c 0.46837,-1.2375 1.77751,-4.95 2.9092,-8.25 3.26422,-9.5184 4.31244,-12.51603 7.16849,-20.5 1.47561,-4.125 3.37237,-9.525 4.21501,-12 l 1.53209,-4.5 h -23.10962 c -23.5872,0 -28.00581,-0.47823 -43.10962,-4.66579 -15.04964,-4.17255 -30.48077,-11.13791 -42.42284,-19.14898 -6.59392,-4.42338 -7.1898,-4.65592 -5.33601,-2.08234 3.87836,5.38422 28.89993,29.17817 38.25885,36.38176 2.475,1.90502 4.725,3.72403 5,4.04225 0.275,0.31821 3.425,2.57984 7,5.02584 3.575,2.44599 7.09464,5.00976 7.82143,5.69726 0.72678,0.6875 1.70714,1.25 2.17857,1.25 0.47143,0 1.45179,0.57393 2.17857,1.27541 1.79922,1.73655 18.62568,11.72459 19.75196,11.72459 0.49654,0 1.0528,0.3375 1.23614,0.75 0.34227,0.77012 11.71977,6.98098 13.10477,7.15376 0.42429,0.0529 1.15465,-0.91626 1.62301,-2.15376 z M 440.4398,679.89647 c 3.33311,-0.60694 10.5602,-2.24289 16.0602,-3.63545 5.5,-1.39256 11.0125,-2.74843 12.25,-3.01305 1.2375,-0.26462 2.25,-0.87866 2.25,-1.36455 0,-0.48588 0.63035,-0.88342 1.40078,-0.88342 1.18901,0 7.24467,-2.95329 19.744,-9.62897 1.45462,-0.77689 3.19722,-2.07819 3.87244,-2.89178 0.67522,-0.81359 1.67262,-1.47925 2.21644,-1.47925 3.90805,0 27.7478,-24.33365 36.24901,-37 C 540.85677,610.50293 552,588.68333 552,585.69926 c 0,-0.86968 0.38827,-1.82119 0.86283,-2.11448 0.47455,-0.29329 1.42336,-2.68235 2.10847,-5.30902 0.6851,-2.62667 2.28247,-8.37576 3.54971,-12.77576 5.57474,-19.35612 7.83855,-38.60746 7.70232,-65.5 -0.10451,-20.63186 -1.90446,-39.31912 -5.20126,-54 -5.04746,-22.47676 -13.35376,-51.67714 -16.92528,-59.5 -0.5022,-1.1 -2.12106,-5.15 -3.59746,-9 -4.01853,-10.47912 -12.18354,-27.93201 -16.84194,-36 -1.27026,-2.2 -3.831,-6.925 -5.69054,-10.5 -1.85953,-3.575 -5.08779,-9.06281 -7.17391,-12.19513 C 508.70682,315.67255 507,312.84123 507,312.51306 c 0,-0.32818 -0.9,-1.56272 -2,-2.74343 -1.1,-1.18072 -2,-2.7369 -2,-3.45819 0,-0.72129 -0.3375,-1.31625 -0.75,-1.32213 -0.4125,-0.006 -2.775,-3.15107 -5.25,-6.98931 -4.37428,-6.78366 -6,-8.33679 -6,-5.73213 0,0.69732 -1.07382,2.84813 -2.38626,4.77956 -1.31245,1.93143 -4.71721,7.9984 -7.56614,13.48213 -2.84893,5.48374 -7.18593,13.57044 -9.63779,17.97044 -2.45185,4.4 -5.14662,9.35 -5.98837,11 -0.84176,1.65 -3.31316,6.15 -5.49202,10 -2.17886,3.85 -5.09134,9.25 -6.47219,12 -1.38085,2.75 -4.09912,7.7 -6.04062,11 -1.94149,3.3 -3.78196,6.7875 -4.08993,7.75 -0.30797,0.9625 -0.95746,1.75 -1.44331,1.75 -0.48585,0 -0.88337,0.79987 -0.88337,1.77749 0,0.97763 -0.78683,2.89013 -1.74851,4.25 -0.96167,1.35988 -2.69201,4.27251 -3.84518,6.47251 -1.15318,2.2 -3.79946,7.15 -5.88063,11 -2.08117,3.85 -4.86965,9.025 -6.19663,11.5 -1.32698,2.475 -3.77828,6.975 -5.44734,10 -1.66905,3.025 -4.42516,8.2 -6.12469,11.5 -1.69953,3.3 -3.35262,6.225 -3.67354,6.5 -0.52586,0.45062 -7.65323,13.88346 -13.92807,26.25 -1.3256,2.6125 -2.69035,4.74963 -3.03279,4.74918 -0.34244,-4.5e-4 -0.46056,6.86205 -0.26249,15.25 0.41831,17.71435 -0.61837,27.26061 -4.91402,45.25082 -5.69015,23.83034 -21.33676,51.15509 -39.50095,68.98318 -5.45783,5.35684 -12.2878,11.32972 -15.44516,13.50695 -1.925,1.32743 -3.725,2.72552 -4,3.10686 -0.60258,0.8356 -15.28005,9.79368 -19.5,11.90142 -6.40678,3.19998 -6.01121,5.55817 1.75,10.43254 C 323.313,653.26312 337.42717,661 339.47646,661 c 0.74628,0 1.50687,0.3375 1.69021,0.75 0.39524,0.88931 13.62458,6.5767 19.33333,8.31156 2.2,0.66856 4.9,1.55192 6,1.96302 1.1,0.4111 4.025,1.30094 6.5,1.97741 2.475,0.67648 5.625,1.58642 7,2.0221 2.72933,0.8648 11.35937,2.54173 20,3.88627 8.12609,1.26447 33.46729,1.25577 40.4398,-0.0139 z M 284.5,636.51851 c 11.98292,-4.02179 13.86382,-5.30214 17.40719,-11.84921 5.82449,-10.76189 9.99232,-18.48237 13.45249,-24.9193 1.84782,-3.4375 4.77282,-8.8375 6.5,-12 1.72717,-3.1625 4.42404,-8.1125 5.99302,-11 1.56899,-2.8875 3.74298,-6.825 4.8311,-8.75 1.08812,-1.925 3.9661,-7.325 6.39551,-12 2.42941,-4.675 4.64363,-8.725 4.92049,-9 0.27686,-0.275 1.17692,-1.85 2.00012,-3.5 0.8232,-1.65 3.11428,-5.925 5.09129,-9.5 1.97701,-3.575 4.94898,-8.975 6.60438,-12 1.6554,-3.025 3.90009,-7.075 4.98821,-9 1.08812,-1.925 3.9661,-7.325 6.39551,-12 2.42941,-4.675 4.64757,-8.725 4.92924,-9 0.28168,-0.275 2.62158,-4.57414 5.19978,-9.55364 l 4.68765,-9.05363 -1.48576,-7.17856 C 378.71042,448.33837 370.642,429.481 359.73478,413.21756 l -6.22535,-9.28245 -1.3746,3.28245 c -0.75603,1.80534 -1.77065,4.06383 -2.25471,5.01887 -0.48407,0.95504 -0.88012,2.33995 -0.88012,3.07759 0,0.73764 -1.18666,4.23125 -2.63702,7.76357 -1.45036,3.53233 -2.98986,7.77241 -3.42111,9.42241 -0.43125,1.65 -3.09506,9.525 -5.91959,17.5 -2.82452,7.975 -5.98072,16.975 -7.01378,20 -1.03305,3.025 -3.74592,10.675 -6.0286,17 -2.28267,6.325 -4.37453,12.4 -4.64858,13.5 -0.27404,1.1 -0.88344,2.9 -1.35423,4 -0.47079,1.1 -1.82969,4.925 -3.01977,8.5 -1.19009,3.575 -2.52549,7.4 -2.96755,8.5 -2.18307,5.43217 -4.50968,12.04918 -8.59023,24.4311 -2.45946,7.4629 -4.87596,14.4689 -5.37,15.5689 -0.49405,1.1 -1.85734,4.925 -3.02954,8.5 -1.1722,3.575 -2.53031,7.4 -3.01804,8.5 -0.48772,1.1 -2.69509,7.4 -4.90525,14 -5.93634,17.7271 -6.30713,18.81868 -7.13325,21 C 275.17338,626.09515 271,638.38105 271,639.82845 c 0,0.96226 2.86094,0.26081 13.5,-3.30994 z M 616.56445,616.5 C 625.99801,605.28502 646,577.43857 646,575.52029 c 0,-0.30604 1.69656,-3.3608 3.77013,-6.78836 3.62304,-5.98878 11.42387,-21.42988 14.51535,-28.73193 0.81499,-1.925 2.43416,-5.6326 3.59816,-8.2391 1.164,-2.60651 2.11636,-5.20011 2.11636,-5.76357 0,-0.56346 0.43428,-1.80586 0.96506,-2.7609 1.59769,-2.8747 7.91424,-22.95492 9.9832,-31.73643 0.64791,-2.75 1.57985,-6.575 2.07098,-8.5 1.83616,-7.19684 3.87204,-19.29519 6.01168,-35.72474 1.39427,-10.70612 1.38108,-51.94094 -0.02,-62.52932 -2.14495,-16.20999 -4.16858,-28.22133 -6.02236,-35.74594 -0.47425,-1.925 -1.40123,-5.75 -2.05995,-8.5 -2.47101,-10.31577 -7.71781,-26.57347 -12.02161,-37.25 -0.49884,-1.2375 -1.31111,-3.2625 -1.80503,-4.5 -3.21908,-8.06527 -12.25468,-26.72363 -16.82822,-34.75 -6.35121,-11.14612 -17.61332,-28.70534 -19.24135,-30 -0.34581,-0.275 -1.71039,-2.075 -3.03239,-4 -1.322,-1.925 -2.67641,-3.725 -3.00978,-4 -0.33338,-0.275 -1.27873,-1.4858 -2.10077,-2.69066 -6.76642,-9.91751 -25.05795,-29.04775 -41.92593,-43.84836 C 575.48324,174.65237 561.7929,164 561.09319,164 c -0.34941,0 -2.36636,3.2625 -4.4821,7.25 -2.11574,3.9875 -4.95557,9.2667 -6.31073,11.73155 -1.35517,2.46485 -4.16383,7.63985 -6.24147,11.5 -2.07764,3.86015 -4.97612,9.04345 -6.44107,11.51845 -1.46495,2.475 -3.44075,6.075 -4.39068,8 -0.94993,1.925 -2.06464,3.65 -2.47714,3.83333 -0.4125,0.18334 -0.75,1.01387 -0.75,1.84563 0,0.83177 -0.8362,2.70677 -1.85822,4.16667 -4.63575,6.62195 -4.65989,6.43995 1.85532,13.99108 3.3016,3.82655 6.0029,7.24752 6.0029,7.60214 0,0.35463 0.94476,1.63846 2.09947,2.85296 1.15471,1.21451 3.936,4.90819 6.18064,8.20819 2.24464,3.3 4.44988,6.15 4.90053,6.33333 0.45065,0.18334 0.81936,0.90109 0.81936,1.59502 0,0.69392 0.9,2.07616 2,3.07165 1.1,0.99549 2,2.34549 2,3 0,0.65451 0.9,2.00451 2,3 1.1,0.99549 2,2.33038 2,2.96643 0,0.63604 0.7875,2.05171 1.75,3.14593 1.84282,2.095 3.7067,5.08407 5.99729,9.61776 0.75865,1.50157 1.75773,2.96396 2.22018,3.24977 0.46245,0.28581 2.52203,3.76838 4.57685,7.73905 2.05483,3.97067 4.64225,8.80827 5.74983,10.75023 8.0044,14.03439 27.70585,58.87809 27.70585,63.06302 0,0.54722 0.429,1.77634 0.95334,2.73138 4.38424,7.98551 15.50871,52.50234 18.05142,72.23643 0.60237,4.675 1.54196,11.425 2.08797,15 1.87041,12.24642 2.77464,39.81719 1.86283,56.79939 -1.15471,21.5059 -2.43432,31.12311 -6.94553,52.20061 -2.74642,12.83194 -10.08325,34.5087 -14.10133,41.66256 -1.04979,1.86905 -1.9087,3.86706 -1.9087,4.44003 0,0.57297 -2.48464,5.39678 -5.52142,10.71959 l -5.52141,9.67782 8.28017,-8.5 c 4.55409,-4.675 10.55129,-11.2 13.32711,-14.5 z M 83.865131,466 c 0.583529,-3.025 1.552964,-7.3 2.1543,-9.5 0.601335,-2.2 1.464562,-5.35 1.918281,-7 2.748191,-9.9941 15.338218,-37.5 17.164528,-37.5 0.41964,0 1.04779,-0.89734 1.39588,-1.99408 0.34809,-1.09674 1.18073,-2.55924 1.8503,-3.25 0.66957,-0.69076 2.31946,-2.83092 3.66642,-4.75592 5.00489,-7.15274 16.41822,-19.21639 24.37107,-25.75973 l 3.88591,-3.19719 -0.64238,-7.27154 C 135.86746,323.18711 136.95475,290.28132 143.0583,262 c 1.12764,-5.225 2.45972,-11.39901 2.96017,-13.72002 0.50046,-2.321 2.76633,-9.521 5.03527,-16 2.26895,-6.47899 4.36252,-12.79248 4.65238,-14.02998 0.28987,-1.2375 0.92457,-2.25 1.41046,-2.25 0.48588,0 0.88342,-0.49395 0.88342,-1.09767 0,-1.55759 8.23958,-18.33358 9.20208,-18.73566 0.43885,-0.18334 0.79792,-0.77726 0.79792,-1.31983 0,-0.54257 1.35,-2.94865 3,-5.34684 1.65,-2.39819 3,-4.80427 3,-5.34684 0,-0.54257 0.35375,-1.13649 0.78612,-1.31983 0.43237,-0.18333 1.85009,-1.84791 3.1505,-3.69906 2.28762,-3.25646 2.29516,-3.32868 0.23236,-2.22471 -2.30181,1.2319 -30.61037,29.02296 -36.25316,35.59044 -1.89024,2.2 -4.99546,6.025 -6.90047,8.5 -1.90502,2.475 -3.72198,4.725 -4.03769,5 -0.31571,0.275 -1.65566,2.075 -2.97766,4 -1.322,1.925 -2.67355,3.725 -3.00343,4 -0.32989,0.275 -2.94213,4.1 -5.80498,8.5 -2.86285,4.4 -5.56204,8.45 -5.99818,9 -0.43615,0.55 -1.89559,3.025 -3.2432,5.5 -1.34762,2.475 -2.71952,4.725 -3.04867,5 -1.26838,1.05971 -14.727735,28.9604 -18.267702,37.8682 -11.570507,29.11545 -17.154964,51.42734 -21.55798,86.1318 -1.380431,10.88052 -1.407865,50.06349 -0.04236,60.5 2.434392,18.60598 4.987532,32.81938 7.993491,44.5 1.561202,6.06655 5.158576,18.43729 5.815943,20 0.347042,0.825 0.930292,-7.725 1.296111,-19 0.365819,-11.275 1.142559,-22.975 1.726088,-26 z M 352.57697,383.32984 c 0.7926,-1.7436 1.72015,-4.56546 2.06122,-6.27081 0.34108,-1.70536 1.01201,-3.34284 1.49097,-3.63886 C 356.60812,373.12416 357,371.78352 357,370.44098 357,369.09844 357.45,368 358,368 c 0.55,0 1,-0.60068 1,-1.33484 0,-1.44565 3.52447,-12.91085 4.96926,-16.16516 0.48836,-1.1 1.64898,-4.475 2.57915,-7.5 0.93017,-3.025 2.27242,-6.85 2.98278,-8.5 0.71035,-1.65 2.28713,-6.15 3.50394,-10 1.21682,-3.85 2.6067,-7.4275 3.08863,-7.95 0.48193,-0.5225 0.87624,-1.95844 0.87624,-3.19098 0,-1.23254 0.39188,-2.48318 0.87084,-2.77919 0.47896,-0.29602 1.14989,-1.9335 1.49097,-3.63886 0.34107,-1.70535 1.24646,-4.52721 2.01198,-6.27081 0.76552,-1.74359 2.40025,-6.54516 3.63274,-10.67016 1.2325,-4.125 2.55417,-7.95 2.93706,-8.5 0.38288,-0.55 1.28052,-3.025 1.99475,-5.5 0.71423,-2.475 2.53182,-7.875 4.0391,-12 1.50727,-4.125 3.67275,-10.2 4.81217,-13.5 3.8157,-11.0511 4.48671,-12.96407 7.19077,-20.5 C 409.878,219.13776 411,215.54193 411,213.91298 411,212.46718 402.0589,206 400.06005,206 399.47702,206 399,205.60459 399,205.12132 c 0,-0.48327 -1.4625,-1.47023 -3.25,-2.19323 -1.7875,-0.723 -3.475,-1.56656 -3.75,-1.87458 -1.11881,-1.25315 -26.04939,-13.03505 -33.5,-15.83171 -11.90712,-4.46945 -24.06947,-7.92189 -32.5,-9.22552 -4.125,-0.63786 -9.14157,-1.57795 -11.14793,-2.08908 -2.00637,-0.51112 -10.78137,-0.95231 -19.5,-0.9804 -20.08164,-0.0647 -35.15118,2.73137 -53.85207,9.99201 -6.39336,2.48222 -18.82165,9.15732 -21.40815,11.49807 -0.96213,0.87072 -2.07779,1.58312 -2.47923,1.58312 -0.89454,0 -8.98282,6.20795 -9.44595,7.25 -0.18334,0.4125 -0.75187,0.75 -1.26342,0.75 -1.34188,0 -12.9686,11.94231 -19.26638,19.78933 C 182.52282,230.16143 168,253.31958 168,255.10236 c 0,0.4611 -1.16126,3.37714 -2.58057,6.48008 C 154.81757,284.76045 148,320.82142 148,353.72096 v 13.50906 l 2.41472,-1.58219 c 10.30425,-6.7516 23.30482,-12.94139 35.58528,-16.94275 7.3449,-2.3932 10.36054,-3.18046 22.5,-5.87385 8.26336,-1.8334 46.82551,-1.8204 55,0.0185 19.69064,4.42963 24.65994,5.82093 31.5,8.81936 19.17289,8.4047 34.37381,18.10949 46.78477,29.86899 6.27005,5.94094 8.80443,7.79542 9.03317,6.60983 0.17486,-0.90637 0.96642,-3.07451 1.75903,-4.8181 z M 433.8,149.8 c 0.66,-0.66 1.2,-1.99796 1.2,-2.97325 0,-0.97529 0.85012,-3.69779 1.88916,-6.05 1.03904,-2.35221 2.79015,-6.97675 3.89135,-10.27675 2.9628,-8.87866 4.38609,-12.79649 5.35353,-14.73643 1.62812,-3.26472 0.93929,-4.48807 -2.88404,-5.12206 -2.0625,-0.34201 -6.225,-1.10294 -9.25,-1.69097 -9.91031,-1.92647 -17.23973,-2.8441 -36,-4.50714 -15.60227,-1.3831 -21.08446,-1.4602 -35,-0.49227 -22.75148,1.58255 -37.51113,3.76866 -56.89647,8.42718 -5.33111,1.28113 -5.20346,1.30444 10.53688,1.92412 8.76335,0.345 18.16677,1.05697 20.89648,1.58215 2.72971,0.52518 7.88811,1.49091 11.46311,2.14606 7.0146,1.2855 8.60203,1.68385 20,5.01883 8.703,2.54645 16.73222,5.39439 22.7391,8.06551 2.33151,1.03676 4.51643,1.88502 4.85538,1.88502 1.14724,0 21.54248,10.16475 28.24555,14.07726 7.5456,4.40429 7.34069,4.34202 8.95997,2.72274 z m 646.9514,563.44262 c -3.3865,-2.09963 -5.0761,-6.88133 -4.2158,-11.93034 0.9526,-5.59022 25.7587,-78.78072 29.0839,-85.81228 1.8049,-3.81662 5.6668,-8.95127 10.6126,-14.1102 9.3067,-9.70779 19.4293,-15.47992 30.3712,-17.31841 4.9456,-0.83098 29.8116,-1.07084 87.8967,-0.84786 90.1486,0.34606 85.7382,0.009 94.1418,7.20184 6.3573,5.44162 8.8563,11.53259 8.8518,21.57463 0,10.26705 -1.551,15.85686 -5.691,20.57204 -4.6342,5.27808 -9.5941,7.43393 -17.0128,7.39469 -4.8698,-0.0258 -6.8542,-0.50291 -8.7898,-2.11349 -2.2698,-1.88871 -2.5052,-2.8089 -2.5563,-9.99527 -0.048,-6.80068 -0.3691,-8.22781 -2.2775,-10.13651 l -2.2211,-2.22146 -74.7226,-0.28867 c -53.8314,-0.20797 -75.8868,0.0314 -78.887,0.85601 -5.111,1.40488 -8.7668,5.06944 -10.7967,10.82256 -0.8463,2.39885 -1.5388,4.69073 -1.5388,5.09306 0,0.40233 19.0125,1.00193 42.25,1.33244 27.7751,0.39504 46.1899,1.10337 53.75,2.06749 42.9514,5.47753 66.053,19.64208 78.4859,48.12302 5.3124,12.16961 4.4996,18.67377 -3.2023,25.6234 -4.9903,4.50282 -10.0595,6.24277 -16.4103,5.63254 -6.1679,-0.59266 -7.7382,-2.04097 -13.9141,-12.83309 -6.3293,-11.06025 -15.4996,-19.91912 -26.4876,-25.58797 -17.3771,-8.96506 -26.9772,-10.24752 -82.4716,-11.01716 l -43.5,-0.6033 -6.3648,19.26405 c -6.9832,21.13555 -9.6246,25.50165 -17.6352,29.14996 -5.0701,2.30909 -13.1151,2.3611 -16.7486,0.10828 z m 293.5227,0.72467 c -11.5446,-2.33513 -21.0444,-12.46591 -24.35,-25.96729 -1.9665,-8.03174 -1.728,-24.97792 0.4785,-34 3.8924,-15.91584 15.5987,-35.22376 28.9,-47.66646 7.0807,-6.62365 18.168,-14.32712 24.9175,-17.31277 12.492,-5.52577 10.7686,-5.41033 86.7799,-5.81258 73.8122,-0.3906 80.2686,-0.10367 88.2222,3.92071 12.5941,6.37244 18.9361,19.30242 19.0554,38.84991 0.08,13.06539 -2.0207,22.33875 -7.8346,34.59075 -10.8378,22.83875 -31.1356,42.385 -53.1964,51.22653 L 1530.5,714.5 l -76,0.16104 c -41.8,0.0886 -77.9017,-0.22362 -80.2259,-0.69375 z m 152.8394,-31.98237 c 13.5171,-2.54729 25.9602,-12.85155 32.586,-26.98492 7.3671,-15.71468 7.8502,-24.66126 1.7183,-31.82502 C 1554.6647,615.2855 1556.8004,615.5 1485,615.5 c -59.6186,0 -63.8362,0.11532 -69,1.88668 -8.0454,2.75983 -13.6569,6.30759 -19.7178,12.46612 -9.925,10.08485 -17.3197,30.4033 -14.4955,39.82951 1.5897,5.30597 7.0179,10.30723 12.9052,11.89003 6.0893,1.63711 123.9746,2.00441 132.4216,0.41258 z M 1641,714.06053 c -16.8565,-3.41693 -26.3861,-21.3157 -24.6374,-46.27465 1.9131,-27.30658 19.1805,-55.36219 44.3877,-72.11986 8.2893,-5.51071 13.6001,-7.98109 22.3595,-10.40079 5.8943,-1.62826 13.5752,-1.76523 98.9863,-1.76523 102.1287,0 94.7598,-0.4782 97.6074,6.33428 2.8619,6.84665 -0.3068,15.34315 -8.0454,21.57289 l -3.842,3.09283 -89.658,0.52524 c -88.2912,0.51722 -89.7436,0.55757 -95.2643,2.64664 -7.728,2.92435 -13.3708,6.66508 -19.1577,12.70007 -9.5498,9.95928 -16.6862,30.17576 -13.9159,39.42215 1.6815,5.61261 7.6235,10.70641 14.1125,12.09805 3.5484,0.761 31.637,1.10785 89.7154,1.10785 75.0067,0 84.9257,0.17843 87.8811,1.5809 9.8925,4.69426 5.415,22.90473 -7.0206,28.55412 -3.7902,1.72184 -9.0754,1.81599 -97.0086,1.72802 -51.15,-0.0512 -94.575,-0.4123 -96.5,-0.80251 z m 233.7514,-0.81791 c -3.4878,-2.16248 -5.0143,-6.74175 -4.1196,-12.35845 0.8335,-5.23254 33.3684,-101.00468 36.1915,-106.53628 3.7082,-7.26571 9.7688,-10.68755 18.9665,-10.70854 5.5178,-0.0126 6.6224,0.31857 9,2.69816 4.3409,4.34459 3.6874,10.72964 -3.121,30.49144 l -5.6257,16.32895 40.2284,-0.46573 c 41.2821,-0.47792 42.4937,-0.58155 59.4706,-5.08645 19.0051,-5.04311 47.0967,-17.44102 75.6963,-33.40772 18.5086,-10.33302 19.0826,-10.573 25.2898,-10.573 5.5748,0 6.6827,0.33165 9.0616,2.7127 2.3802,2.38241 2.7081,3.48251 2.6933,9.03538 -0.022,8.22445 -2.3412,11.65876 -12.3859,18.34049 -15.509,10.31655 -46.3392,26.78157 -62.4569,33.35544 -4.9053,2.0007 -5.5773,2.5562 -4.1255,3.41048 12.8133,7.53993 35.8326,26.94788 42.1299,35.52051 5.2026,7.08225 4.4895,15.05572 -1.956,21.87211 -5.7874,6.12032 -15.2474,8.76699 -22.0675,6.17395 -1.38,-0.52466 -7.2697,-5.24654 -13.0882,-10.49307 -16.8634,-15.20577 -36.4215,-27.49123 -51.533,-32.37064 -16.219,-5.23701 -18.3265,-5.4487 -59.13,-5.93948 l -38.63,-0.46464 -5.7586,17.36088 c -6.5258,19.67346 -8.1324,23.25444 -12.1398,27.05784 -5.9336,5.63162 -16.8726,7.59067 -22.5902,4.04567 z m 274.7413,-0.59393 c -5.8258,-2.71295 -10.7183,-7.87178 -12.6255,-13.31292 -0.7395,-2.10967 -1.3343,-7.66077 -1.3219,-12.33577 0.02,-7.65618 0.5892,-10.18764 5.7299,-25.5 3.1389,-9.35 6.5672,-18.40107 7.6183,-20.11349 1.0652,-1.73545 4.0567,-4.16977 6.7588,-5.5 L 2160.5,633.5 h 107.3364 107.3365 l 2.4135,2.80576 c 4.6066,5.35516 2.6744,17.40135 -3.7527,23.39651 C 2367.9353,665.2042 2371.9873,665 2268.7082,665 h -95.3561 l -2.3865,7.60956 c -2.3336,7.44105 -2.3443,7.64034 -0.4849,9 1.5919,1.16399 17.2659,1.39044 96.2425,1.39044 102.7343,0 100.1323,-0.14034 102.2832,5.51673 3.296,8.66914 -2.1749,20.38297 -11.4978,24.61829 -3.7907,1.72208 -9.4167,1.82172 -103.5086,1.83325 l -99.5,0.0122 -5.0073,-2.33177 z m 349.527,1.06686 c -3.8405,-1.94318 -5.1982,-5.43157 -4.56,-11.71555 0.3248,-3.19792 6.3567,-22.45167 14.4111,-46 l 13.8523,-40.5 -45.2574,-0.5 c -50.7862,-0.56108 -48.6513,-0.22025 -49.9617,-7.97643 -1.3417,-7.94132 3.1362,-16.87764 10.5347,-21.02357 l 4.4613,-2.5 h 107.0963 c 118.1448,0 109.2494,-0.50261 112.1072,6.33428 2.947,7.05015 -0.4238,15.68109 -8.5427,21.87355 L 2648.8445,615 h -46.2632 -46.2633 l -14.3136,42.25 c -7.8725,23.2375 -15.1028,43.825 -16.0674,45.75 -2.2782,4.54653 -6.5041,8.50421 -11.1549,10.44695 -4.467,1.86598 -12.3402,2.00014 -15.7624,0.2686 z m 289.7317,-0.47293 c -3.4878,-2.16248 -5.0143,-6.74175 -4.1196,-12.35845 0.8335,-5.23254 33.3684,-101.00468 36.1915,-106.53628 2.2436,-4.39588 4.2173,-6.32672 9.1767,-8.9773 3.3341,-1.7819 7.8144,-1.88398 94.5,-2.153 54.4813,-0.16908 93.4838,0.10153 97.1894,0.67431 14.6815,2.26939 22.8103,10.75281 24.0095,25.05698 1.9393,23.13097 -16.2508,46.40369 -42.6989,54.62984 -3.7057,1.1526 -19.4177,1.40154 -89.0197,1.41046 l -84.5197,0.0108 -6.3451,19.12421 c -6.9608,20.97976 -9.6281,25.37237 -17.6155,29.01013 -5.0701,2.30909 -13.1151,2.3611 -16.7486,0.10828 z m 215.0483,-81.64761 c 3.0447,-1.58416 6.3987,-5.02407 8.0786,-8.28542 0.9455,-1.83552 0.7368,-2.64562 -1.2881,-5 l -2.4164,-2.80959 -80.8734,-0.27272 -80.8734,-0.27271 -2.7135,8.33226 c -1.4924,4.58274 -2.7135,8.64297 -2.7135,9.02272 0,0.37975 36.0223,0.69045 80.0497,0.69045 66.8012,0 80.4965,-0.23253 82.75,-1.40499 z m 42.9517,81.64761 c -3.813,-2.3641 -5.111,-6.85354 -3.8859,-13.44043 1.3085,-7.03562 10.3542,-32.5978 13.7305,-38.80122 3.5375,-6.49962 16.5335,-19.03002 23.2729,-22.43926 10.8174,-5.47208 11.7706,-5.5255 98.9308,-5.54435 86.4444,-0.0187 82.9697,0.18595 87.8253,-5.17235 4.2619,-4.70305 4.6213,-6.44708 1.9651,-9.53542 l -2.4164,-2.80959 -92.4315,-0.27013 -92.4314,-0.27014 -2.195,-2.33647 c -6.2752,-6.67965 -1.9939,-21.06614 7.9229,-26.62326 l 4.4613,-2.5 91,-0.28241 c 54.4813,-0.16908 93.4838,0.10153 97.1894,0.67431 14.6815,2.26939 22.8103,10.75281 24.0095,25.05698 1.3989,16.68556 -8.4242,34.99918 -24.7021,46.0533 -6.7021,4.55132 -11.388,6.67215 -19.7105,8.921 l -6.2137,1.67903 8.9596,8.26268 c 14.2086,13.10356 17.1992,19.08624 13.9065,27.82001 -2.6238,6.95945 -11.914,13.25268 -19.6236,13.29314 -6.384,0.0335 -8.4433,-1.15692 -19.5419,-11.29621 -12.5496,-11.465 -32.5534,-25.18371 -43.0978,-29.55674 -18.0446,-7.48357 -30.1812,-9.0521 -70.1754,-9.06945 -37.1286,-0.0161 -35.7494,-0.77673 -44.1261,24.33523 -5.1181,15.34332 -8.484,20.37786 -15.8739,23.74347 -5.0701,2.30909 -13.1151,2.3611 -16.7486,0.10828 z m 293.5227,0.72467 c -11.5446,-2.33513 -21.0444,-12.46591 -24.35,-25.96729 -1.9665,-8.03174 -1.728,-24.97792 0.4785,-34 3.8924,-15.91584 15.5987,-35.22376 28.9,-47.66646 7.0807,-6.62365 18.168,-14.32712 24.9175,-17.31277 12.492,-5.52577 10.7686,-5.41033 86.7799,-5.81258 73.8122,-0.3906 80.2686,-0.10367 88.2222,3.92071 12.5941,6.37244 18.9361,19.30242 19.0554,38.84991 0.08,13.06539 -2.0207,22.33875 -7.8346,34.59075 -10.8378,22.83875 -31.1356,42.385 -53.1964,51.22653 L 3496.5,714.5 l -76,0.16104 c -41.8,0.0886 -77.9017,-0.22362 -80.2259,-0.69375 z m 152.8394,-31.98237 c 13.5171,-2.54729 25.9602,-12.85155 32.586,-26.98492 7.3671,-15.71468 7.8502,-24.66126 1.7183,-31.82502 C 3520.6647,615.2855 3522.8004,615.5 3451,615.5 c -59.6186,0 -63.8362,0.11532 -69,1.88668 -8.0454,2.75983 -13.6569,6.30759 -19.7178,12.46612 -9.925,10.08485 -17.3197,30.4033 -14.4955,39.82951 1.5897,5.30597 7.0179,10.30723 12.9052,11.89003 6.0893,1.63711 123.9746,2.00441 132.4216,0.41258 z m 109.9679,31.44744 c -6.7885,-1.85125 -10.8781,-4.358 -15.5547,-9.53453 -5.5285,-6.11932 -7.6769,-11.9692 -8.2718,-22.52286 -0.8659,-15.36175 2.5247,-24.63289 11.0052,-30.09196 3.6021,-2.31876 5.3259,-2.73335 11.4595,-2.75616 6.207,-0.0231 7.5395,0.29351 9.5,2.25698 2.0223,2.02533 2.2818,3.2704 2.2932,11 0.01,5.4116 0.536,9.74431 1.3931,11.428 1.9279,3.78744 8.2066,7.67163 14.2554,8.81875 7.4534,1.41351 123.3027,1.27468 130.0395,-0.15584 5.5447,-1.1774 14.8811,-5.56476 18.2992,-8.59923 3.9218,-3.48158 11.2865,-12.8453 13.4054,-17.04409 1.1848,-2.34772 6.3477,-16.52592 11.4731,-31.50712 5.1254,-14.9812 10.0193,-28.58534 10.8752,-30.23142 3.5767,-6.87846 10.652,-10.83315 19.4179,-10.85353 6.946,-0.0162 8.8958,1.08452 11.0498,6.23758 2.007,4.80167 1.2681,7.95278 -8.9404,38.12307 -12.1333,35.85915 -16.1575,43.70502 -30.0418,58.57215 -11.3177,12.11887 -23.2944,20.35473 -37.3048,25.65281 l -5.9344,2.2441 -76.5,0.22049 c -64.8671,0.18697 -77.324,-0.004 -81.9186,-1.25719 z m 252.4113,-0.78367 c -5.8258,-2.71295 -10.7183,-7.87178 -12.6255,-13.31292 -0.7395,-2.10967 -1.3343,-7.66077 -1.3219,-12.33577 0.02,-7.65618 0.5892,-10.18764 5.7299,-25.5 3.1389,-9.35 6.5672,-18.40107 7.6183,-20.11349 1.0652,-1.73545 4.0567,-4.16977 6.7588,-5.5 L 3866.5,633.5 h 107.3364 107.3365 l 2.4135,2.80576 c 4.6066,5.35516 2.6744,17.40135 -3.7527,23.39651 C 4073.9353,665.2042 4077.9873,665 3974.7082,665 h -95.3561 l -2.3865,7.60956 c -2.3336,7.44105 -2.3443,7.64034 -0.4849,9 1.5919,1.16399 17.2659,1.39044 96.2425,1.39044 102.7343,0 100.1323,-0.14034 102.2832,5.51673 3.296,8.66914 -2.1749,20.38297 -11.4978,24.61829 -3.7907,1.72208 -9.4167,1.82172 -103.5086,1.83325 l -99.5,0.0122 -5.0073,-2.33177 z M 4138,714.06053 c -16.8565,-3.41693 -26.3861,-21.3157 -24.6374,-46.27465 1.9131,-27.30658 19.1805,-55.36219 44.3877,-72.11986 8.2893,-5.51071 13.6001,-7.98109 22.3595,-10.40079 5.8943,-1.62826 13.5752,-1.76523 98.9863,-1.76523 102.1287,0 94.7598,-0.4782 97.6074,6.33428 2.8619,6.84665 -0.3068,15.34315 -8.0454,21.57289 l -3.842,3.09283 -89.658,0.52524 c -88.2912,0.51722 -89.7436,0.55757 -95.2643,2.64664 -7.728,2.92435 -13.3708,6.66508 -19.1577,12.70007 -9.5498,9.95928 -16.6862,30.17576 -13.9159,39.42215 1.6815,5.61261 7.6235,10.70641 14.1125,12.09805 3.5484,0.761 31.637,1.10785 89.7154,1.10785 75.0067,0 84.9257,0.17843 87.8811,1.5809 9.8925,4.69426 5.415,22.90473 -7.0206,28.55412 -3.7902,1.72184 -9.0754,1.81599 -97.0086,1.72802 -51.15,-0.0512 -94.575,-0.4123 -96.5,-0.80251 z m 335.0197,-0.34498 c -3.8405,-1.94318 -5.1982,-5.43157 -4.56,-11.71555 0.3248,-3.19792 6.3567,-22.45167 14.4111,-46 l 13.8523,-40.5 -45.2574,-0.5 c -50.7862,-0.56108 -48.6513,-0.22025 -49.9617,-7.97643 -1.3417,-7.94132 3.1362,-16.87764 10.5347,-21.02357 l 4.4613,-2.5 h 107.0963 c 118.1448,0 109.2494,-0.50261 112.1072,6.33428 2.947,7.05015 -0.4238,15.68109 -8.5427,21.87355 L 4622.8445,615 h -46.2632 -46.2633 l -14.3136,42.25 c -7.8725,23.2375 -15.1028,43.825 -16.0674,45.75 -2.2782,4.54653 -6.5041,8.50421 -11.1549,10.44695 -4.467,1.86598 -12.3402,2.00014 -15.7624,0.2686 z M 2165.1347,612.6434 c -6.2937,-6.69931 -2.0282,-21.07764 7.904,-26.6434 l 4.4613,-2.5 h 110.2273 110.2272 l 2.5538,2.55375 c 5.1094,5.10945 4.1016,15.05161 -2.237,22.06766 -6.7115,7.42886 2.892,6.87859 -120.0473,6.87859 h -110.8754 z m 1706,0 c -6.2937,-6.69931 -2.0282,-21.07764 7.904,-26.6434 l 4.4613,-2.5 h 110.2273 110.2272 l 2.5538,2.55375 c 5.1094,5.10945 4.1016,15.05161 -2.237,22.06766 -6.7115,7.42886 2.892,6.87859 -120.0473,6.87859 H 3873.3486 Z M 918.01971,464.71555 c -3.68848,-1.86628 -5.18431,-5.46439 -4.6626,-11.21555 0.6059,-6.67914 17.71739,-56.91015 22.82396,-67 2.22688,-4.4 6.04487,-10.8125 8.48442,-14.25 l 4.43556,-6.25 h -48.87621 -48.87621 l -2.21392,-2.3566 C 842.84104,356.94409 847.1065,342.56576 857.0387,337 l 4.4613,-2.5 h 107.09631 c 118.14479,0 109.24939,-0.50261 112.10719,6.33428 2.8616,6.84576 -0.3061,15.34124 -8.0438,21.57289 l -3.8402,3.09283 -34.6598,0.53619 c -32.119,0.49689 -35.07817,0.69186 -40.36846,2.65982 -7.27471,2.70615 -16.29077,9.6349 -21.47848,16.50597 -5.35246,7.08928 -8.54244,14.63934 -18.16917,43.00289 -8.90037,26.22344 -9.71235,28.10524 -13.80431,31.99208 -5.62641,5.34437 -16.38344,7.52213 -22.31957,4.5186 z m 193.25439,0.25174 c -11.5446,-2.33513 -21.0444,-12.46591 -24.35,-25.96729 -1.9665,-8.03174 -1.728,-24.97792 0.4785,-34 3.8924,-15.91584 15.5987,-35.22376 28.9,-47.66646 7.0807,-6.62365 18.168,-14.32712 24.9175,-17.31277 12.492,-5.52577 10.7686,-5.41033 86.7799,-5.81258 73.8122,-0.3906 80.2686,-0.10367 88.2222,3.92071 12.5941,6.37244 18.9361,19.30242 19.0554,38.84991 0.08,13.06539 -2.0207,22.33875 -7.8346,34.59075 -10.8378,22.83875 -31.1356,42.385 -53.1964,51.22653 L 1267.5,465.5 l -76,0.16104 c -41.8,0.0886 -77.9017,-0.22362 -80.2259,-0.69375 z m 152.8394,-31.98237 c 13.5171,-2.54729 25.9602,-12.85155 32.586,-26.98492 7.3671,-15.71468 7.8502,-24.66126 1.7183,-31.82502 C 1291.6647,366.2855 1293.8004,366.5 1222,366.5 c -59.6186,0 -63.8362,0.11532 -69,1.88668 -8.0454,2.75983 -13.6569,6.30759 -19.7178,12.46612 -9.925,10.08485 -17.3197,30.4033 -14.4955,39.82951 1.5897,5.30597 7.0179,10.30723 12.9052,11.89003 6.0893,1.63711 123.9746,2.00441 132.4216,0.41258 z m 79.6379,31.2577 c -3.4878,-2.16248 -5.0143,-6.74175 -4.1196,-12.35845 0.8335,-5.23254 33.3684,-101.00468 36.1915,-106.53628 3.7082,-7.26571 9.7688,-10.68755 18.9665,-10.70854 5.5178,-0.0126 6.6224,0.31857 9,2.69816 4.3409,4.34459 3.6874,10.72964 -3.121,30.49144 l -5.6257,16.32895 40.2284,-0.46573 c 41.2821,-0.47792 42.4937,-0.58155 59.4706,-5.08645 19.0051,-5.04311 47.0967,-17.44102 75.6963,-33.40772 18.5086,-10.33302 19.0826,-10.573 25.2898,-10.573 5.5748,0 6.6827,0.33165 9.0616,2.7127 2.3802,2.38241 2.7081,3.48251 2.6933,9.03538 -0.022,8.22445 -2.3412,11.65876 -12.3859,18.34049 -15.509,10.31655 -46.3392,26.78157 -62.4569,33.35544 -4.9053,2.0007 -5.5773,2.5562 -4.1255,3.41048 12.8133,7.53993 35.8326,26.94788 42.1299,35.52051 5.2026,7.08225 4.4895,15.05572 -1.956,21.87211 -5.7874,6.12032 -15.2474,8.76699 -22.0675,6.17395 -1.38,-0.52466 -7.2697,-5.24654 -13.0882,-10.49307 -16.8634,-15.20577 -36.4215,-27.49123 -51.533,-32.37064 -16.219,-5.23701 -18.3265,-5.4487 -59.13,-5.93948 l -38.63,-0.46464 -5.7586,17.36088 c -6.5258,19.67346 -8.1324,23.25444 -12.1398,27.05784 -5.9336,5.63162 -16.8726,7.59067 -22.5902,4.04567 z m 258,0 c -4.7139,-2.92268 -5.7175,-10.1723 -2.5585,-18.48268 0.8396,-2.20888 76.0406,-72.74821 106.7683,-100.14988 C 1719.0579,333.93103 1730.8449,329 1745.6657,329 c 11.1838,0 18.1869,2.57144 23.041,8.46038 2.0564,2.49476 9.8281,20.22172 23.4057,53.38727 18.273,44.63515 20.3196,50.20974 20.2539,55.16848 -0.086,6.46452 -1.9407,10.52503 -6.7294,14.72957 -4.6043,4.04261 -9.6586,5.58309 -16.4659,5.01857 -4.5754,-0.37943 -5.962,-0.94307 -7.5491,-3.06885 -1.0693,-1.43223 -10.377,-23.21211 -20.6837,-48.39974 -19.6436,-48.00531 -22.3566,-53.24983 -26.8141,-51.83507 -3.4301,1.08867 -10.6873,7.47209 -63.541,55.89061 -29.3374,26.87563 -49.5,44.61502 -52,45.75041 -5.148,2.3381 -13.1795,2.40538 -16.8317,0.14099 z m 239,0 c -3.4878,-2.16248 -5.0143,-6.74175 -4.1196,-12.35845 0.8335,-5.23254 33.3684,-101.00468 36.1915,-106.53628 3.7082,-7.26571 9.7688,-10.68755 18.9665,-10.70854 5.5159,-0.0126 6.6232,0.31909 9,2.69588 5.3704,5.37046 4.7405,8.17602 -14.7372,65.63039 -19.0633,56.23206 -19.4278,57.01296 -28.5526,61.16872 -5.0701,2.30909 -13.1151,2.3611 -16.7486,0.10828 z m 198.2683,0.48603 c -10.232,-5.23121 -3.4447,-26.01749 9.6861,-29.66385 2.5283,-0.7021 34.3227,-1.061 95.2942,-1.07567 l 91.5,-0.022 4,-2.25897 c 4.8978,-2.76601 8.5441,-8.81352 6.9018,-11.44708 -2.6553,-4.2583 -2.0576,-4.23046 -91.4018,-4.25608 l -85.5,-0.0245 -5,-2.33331 c -6.2832,-2.93213 -12.0441,-9.24065 -13.5523,-14.84048 -0.6596,-2.44931 -0.9934,-8.45215 -0.774,-13.91885 0.3476,-8.65641 0.7528,-10.35456 4.0759,-17.07828 2.8956,-5.85897 5.5799,-9.27966 12.4702,-15.89123 9.3778,-8.99858 17.2228,-13.7888 26.2802,-16.04703 4.4675,-1.11385 23.4707,-1.37128 101.2272,-1.37128 h 95.7272 l 2.5538,2.55375 c 3.1357,3.13561 4.0553,8.13967 2.5341,13.78905 -1.1516,4.27675 -6.5382,11.21075 -10.4561,13.45965 -1.5622,0.89674 -25.6976,1.32314 -96.0862,1.69755 -104.1347,0.55391 -97.0124,0.0665 -102.8809,7.04081 -3.2072,3.8116 -3.3556,7.32989 -0.3966,9.40249 1.968,1.37845 11.6854,1.5567 84.8635,1.5567 50.2494,0 84.6832,0.3873 87.8513,0.98812 9.2924,1.76226 15.8522,6.2166 19.8987,13.51188 2.7125,4.89039 2.3334,23.23676 -0.6421,31.07397 -5.0879,13.40097 -18.8672,27.00216 -33.3576,32.92659 L 2236.5,465.5 2139,465.74836 c -77.1642,0.19656 -98.0173,-0.0161 -99.9803,-1.01971 z m 361,-0.0131 c -3.8405,-1.94318 -5.1982,-5.43157 -4.56,-11.71555 0.3248,-3.19792 6.3567,-22.45167 14.4111,-46 l 13.8523,-40.5 -45.2574,-0.5 c -50.7862,-0.56108 -48.6513,-0.22025 -49.9617,-7.97643 -1.3417,-7.94132 3.1362,-16.87764 10.5347,-21.02357 l 4.4613,-2.5 h 107.0963 c 118.1448,0 109.2494,-0.50261 112.1072,6.33428 2.947,7.05015 -0.4238,15.68109 -8.5427,21.87355 L 2549.8445,366 h -46.2632 -46.2633 l -14.3136,42.25 c -7.8725,23.2375 -15.1028,43.825 -16.0674,45.75 -2.2782,4.54653 -6.5041,8.50421 -11.1549,10.44695 -4.467,1.86598 -12.3402,2.00014 -15.7624,0.2686 z m 193.2544,0.25174 c -11.5403,-2.33425 -21.0272,-12.44761 -24.3588,-25.96729 -2.0858,-8.46407 -1.6446,-25.92935 0.8967,-35.5 2.4933,-9.38967 17.5048,-53.29078 19.5819,-57.26706 C 2593.037,339.25853 2600.43,335 2608.8946,335 c 7.8118,0 11.0695,2.50183 11.8098,9.06955 0.4282,3.7989 -1.0153,9.11355 -9.2255,33.967 -10.6251,32.1641 -12.0101,39.10172 -8.9769,44.96736 1.91,3.69343 4.3903,6.1099 8.998,8.76646 2.7402,1.57984 8.3948,1.75497 65.2935,2.02227 40.5508,0.19049 64.2853,-0.0744 68,-0.75895 8.0514,-1.4837 15.3357,-5.33299 22.3089,-11.78895 7.8983,-7.31249 12.2806,-16.4839 22.8134,-47.74474 4.4475,-13.2 8.8258,-25.35 9.7295,-27 4.282,-7.81771 10.499,-11.44343 19.6816,-11.47804 5.122,-0.0193 6.1806,0.3317 8.75,2.90112 4.8603,4.86025 4.2474,8.86216 -6.0635,39.59221 -4.9426,14.73076 -10.7753,30.47876 -12.9616,34.99556 -10.7227,22.15321 -31.1511,41.60672 -52.8052,50.28524 L 2749.5,465.5 l -76,0.16104 c -41.8,0.0886 -77.9017,-0.22362 -80.2259,-0.69375 z m 232.4773,-0.70543 c -3.4827,-2.1837 -5.011,-6.76432 -4.1295,-12.37769 0.9019,-5.7439 16.8544,-52.20751 19.6847,-57.33386 3.8497,-6.97298 12.9936,-11.34533 21.1223,-10.10009 6.5304,1.0004 8.8171,3.38181 9.2878,9.67265 0.3382,4.51915 -0.4847,8.00446 -5.1572,21.84305 -3.0577,9.05626 -5.5595,16.81876 -5.5595,17.25 0,1.18245 146.7051,0.97408 153.1135,-0.21746 13.5167,-2.51325 26.4712,-13.1321 33.127,-27.15447 5.8437,-12.31133 7.1727,-22.15473 3.8659,-28.63383 -2.3119,-4.52979 -4.4013,-6.45564 -9.6064,-8.85436 -3.7749,-1.73964 -8.9869,-1.86032 -92.618,-2.14463 l -88.618,-0.30126 -2.1716,-2.31156 C 2851.84,356.943 2856.141,342.54641 2866.0387,337 l 4.4613,-2.5 88.5,-0.28223 c 57.6754,-0.18393 90.8467,0.0798 95.2377,0.75716 15.7261,2.42598 24.0311,9.53144 29.3308,25.0942 2.7818,8.16876 2.5625,26.78098 -0.4411,37.43087 -7.934,28.13255 -31.4444,54.7288 -57.6397,65.20533 L 3018.5,465.5 l -95,0.24263 c -88.4374,0.22588 -95.1899,0.12359 -97.7486,-1.48077 z m 284.7413,-0.61317 c -5.8258,-2.71295 -10.7183,-7.87178 -12.6255,-13.31292 -0.7395,-2.10967 -1.3343,-7.66077 -1.3219,-12.33577 0.02,-7.65618 0.5892,-10.18764 5.7299,-25.5 3.1389,-9.35 6.5672,-18.40107 7.6183,-20.11349 1.0652,-1.73545 4.0567,-4.16977 6.7588,-5.5 L 3121.5,384.5 h 107.3364 107.3365 l 2.4135,2.80576 c 4.6066,5.35516 2.6744,17.40135 -3.7527,23.39651 C 3328.9353,416.2042 3332.9873,416 3229.7082,416 h -95.3561 l -2.3865,7.60956 c -2.3336,7.44105 -2.3443,7.64034 -0.4849,9 1.5919,1.16399 17.2659,1.39044 96.2425,1.39044 102.7343,0 100.1323,-0.14034 102.2832,5.51673 3.296,8.66914 -2.1749,20.38297 -11.4978,24.61829 -3.7907,1.72208 -9.4167,1.82172 -103.5086,1.83325 l -99.5,0.0122 -5.0073,-2.33177 z m 248.2587,0.59393 c -3.3824,-2.09711 -5.0743,-6.87477 -4.2249,-11.93034 1.2061,-7.17849 29.7335,-89.80405 33.1258,-95.94415 6.3614,-11.51439 17.2862,-19.36142 29.7208,-21.34785 7.5849,-1.21171 13.5383,-0.5354 18.8864,2.14552 2.0678,1.03653 27.2678,20.02034 56,42.18625 62.4262,48.15954 62.0516,47.88568 64.9244,47.47124 3.9461,-0.56926 7.7454,-8.82351 17.9684,-39.03718 12.6277,-37.32087 14.5086,-42.22961 17.5799,-45.87974 4.0356,-4.79595 9.8174,-7.24369 17.1581,-7.26383 5.7382,-0.0157 6.6312,0.26241 8.75,2.72572 1.8926,2.20019 2.3597,3.89054 2.3597,8.53857 0,4.84986 -2.4204,12.87536 -14.8363,49.19424 -8.1599,23.86941 -15.9965,45.6707 -17.4146,48.44732 -1.436,2.81147 -5.6412,7.93759 -9.4905,11.56889 -5.8041,5.47521 -8.0693,6.89258 -14.1302,8.84144 -9.917,3.18872 -21.226,2.55774 -27.443,-1.53117 -2.302,-1.51399 -27.5854,-20.8161 -56.1854,-42.89358 -28.6,-22.07748 -53.792,-41.35432 -55.9821,-42.83742 -9.917,-6.71541 -11.044,-4.88201 -28.1374,45.77636 -11.7737,34.89273 -13.2687,37.73933 -21.8805,41.66143 -5.0701,2.30909 -13.1151,2.3611 -16.7486,0.10828 z m 358.2683,0.47293 c -3.8405,-1.94318 -5.1982,-5.43157 -4.56,-11.71555 0.3248,-3.19792 6.3567,-22.45167 14.4111,-46 l 13.8523,-40.5 -45.2574,-0.5 c -50.7862,-0.56108 -48.6513,-0.22025 -49.9617,-7.97643 -1.3417,-7.94132 3.1362,-16.87764 10.5347,-21.02357 l 4.4613,-2.5 h 107.0963 c 118.1448,0 109.2494,-0.50261 112.1072,6.33428 2.947,7.05015 -0.4238,15.68109 -8.5427,21.87355 L 3866.8445,366 h -46.2632 -46.2633 l -14.3136,42.25 c -7.8725,23.2375 -15.1028,43.825 -16.0674,45.75 -2.2782,4.54653 -6.5041,8.50421 -11.1549,10.44695 -4.467,1.86598 -12.3402,2.00014 -15.7624,0.2686 z M 3126.1347,363.6434 c -6.2937,-6.69931 -2.0282,-21.07764 7.904,-26.6434 l 4.4613,-2.5 h 110.2273 110.2272 l 2.5538,2.55375 c 5.1094,5.10945 4.1016,15.05161 -2.237,22.06766 -6.7115,7.42886 2.892,6.87859 -120.0473,6.87859 h -110.8754 z"/>
</svg>
